<?xml version="1.0" encoding="UTF-8"?>
<svg id="Calque_2" data-name="Calque 2" xmlns="http://www.w3.org/2000/svg" viewBox="0 0 162.18 196.33">
  <defs>
    <style>
      .cls-1 {
        fill: #3a5777;
      }

      .cls-1, .cls-2 {
        stroke-width: 0px;
      }

      .cls-2 {
        fill: #5892b2;
      }
    </style>
  </defs>
  <g id="Calque_1-2" data-name="Calque 1">
    <g>
      <g>
        <path class="cls-1" d="M100.27,10.66s.08,14.93.08,27.8c0,.16,0,.33,0,.56,3.42-1.38,7-2.71,10.58-3.49V0s6.2,0,6.2,0c0,0,0,28.63.01,40.84-.89,0-2.51.2-3.61.42-3.16.63-6.29,1.46-9.31,2.6-6.97,2.63-13.18,6.39-18.62,11.29-.5.46-.97.96-1.45,1.43-.13.13-.2.26-.18.44,0,.11,0,.23,0,.35,0,14.53,0,29.06.01,43.59l-.05.05h-6.09s-.02-.01-.03-.02c-.38-1.93-.73-3.86-1.15-5.78-2.02-9.43-5.2-18.45-9.54-27.06-4.2-8.34-9.36-16.03-15.47-23.09-1.3-1.51-2.62-3-4.21-4.22-.05-.04-.1-.08-.15-.13-.03-.04-.06-.08-.12-.16,1.26-1.49,2.53-2.98,3.79-4.47.17.13,18.21-.02,27.08-.02V.01c2,0,4.24,0,6.22,0,0,.2,0,48.72.02,48.84,0,0,.18-.5.57-.88,2.51-2.47,5.64-4.45,8.76-5.75.59-.25.43-.48.43-.48-.02-13.76-.01-31.08-.01-31.08h6.22ZM56.9,42.01c.85,1.04,1.66,2.02,2.45,3.02.79,1,1.57,2,2.33,3.02.77,1.03,1.52,2.07,2.25,3.13.73,1.04,1.43,2.1,2.13,3.17.7,1.08,1.38,2.17,2.04,3.27.66,1.09,1.29,2.19,1.92,3.3.63,1.12,1.24,2.25,1.83,3.39.58,1.13,1.15,2.27,1.7,3.41.55,1.16,1.09,2.33,1.6,3.5.51,1.16,1,2.34,1.47,3.52.48,1.18.93,2.38,1.43,3.56,0-12.09,0-24.19-.01-36.3h-21.13Z"/>
        <path class="cls-2" d="M106.93,73.1c-.34-2.13-2.09-3.86-4.22-4.18-3.38-.5-6.22,2.31-5.79,5.71.27,2.13,1.96,3.91,4.08,4.29,3.48.63,6.48-2.34,5.93-5.82Z"/>
      </g>
      <g>
        <path class="cls-2" d="M15.97,171.34c.09,0,.16.04.21.12.05.08.05.16,0,.24l-7.1,11.29-.16.26v12.83c0,.16-.08.24-.24.24h-1.17c-.15,0-.23-.08-.23-.24v-12.87S.04,171.71.04,171.71c-.05-.08-.05-.16,0-.24.05-.08.12-.12.21-.12h1.37c.09,0,.16.03.21.1l6.27,9.99,6.28-10c.05-.07.12-.1.21-.1h1.37Z"/>
        <path class="cls-2" d="M24.28,195.35c-1.49-.64-2.81-1.53-3.97-2.68-1.15-1.16-2.04-2.48-2.68-3.97-.65-1.54-.98-3.16-.98-4.86s.32-3.31.97-4.86c.64-1.49,1.53-2.81,2.68-3.97,1.16-1.15,2.48-2.04,3.97-2.67,1.54-.66,3.16-.99,4.86-.99s3.31.33,4.86.99c1.49.63,2.81,1.51,3.97,2.66,1.15,1.16,2.04,2.48,2.67,3.97.66,1.54.99,3.16.99,4.86s-.33,3.31-.99,4.86c-.63,1.49-1.51,2.81-2.66,3.97-1.16,1.15-2.48,2.04-3.97,2.68-1.54.65-3.16.98-4.86.98s-3.31-.32-4.86-.97ZM24.92,173.86c-1.3.55-2.45,1.32-3.45,2.32-1,1-1.77,2.15-2.32,3.45-.57,1.35-.85,2.75-.85,4.21s.29,2.87.85,4.21c.55,1.3,1.32,2.45,2.32,3.45,1,1,2.15,1.77,3.45,2.31,1.35.57,2.75.85,4.21.85s2.87-.29,4.21-.85c1.3-.55,2.45-1.32,3.45-2.32,1-1,1.77-2.15,2.31-3.45.57-1.35.85-2.75.85-4.21s-.29-2.87-.85-4.21c-.55-1.3-1.32-2.45-2.32-3.45-1-1-2.15-1.77-3.45-2.32-1.35-.57-2.75-.85-4.21-.85s-2.87.29-4.21.85Z"/>
        <path class="cls-2" d="M48.99,193.76c-1.53-1.62-2.3-3.56-2.3-5.8v-16.33c0-.16.08-.24.24-.24h1.15c.16,0,.24.08.24.24v16.35c0,1.79.61,3.33,1.82,4.63,1.23,1.31,2.72,2,4.48,2.07,1.86.07,3.45-.55,4.79-1.85,1.33-1.29,2-2.86,2-4.7v-16.51c0-.16.08-.24.24-.24h1.17c.15,0,.23.08.23.24v16.51c0,2.3-.82,4.26-2.47,5.87-1.66,1.61-3.64,2.39-5.95,2.32-2.21-.07-4.08-.92-5.63-2.56Z"/>
        <path class="cls-2" d="M69.24,184.78v-13.17c0-.16.08-.24.24-.24h8.95c1.82,0,3.39.63,4.7,1.91,1.3,1.29,1.97,2.84,2,4.67.02,1.87-.64,3.48-2,4.82-1.36,1.34-2.98,2-4.86,2h-9.04ZM69.49,196.31c-.16,0-.24-.08-.24-.24v-14.89s1.63,0,1.63,0v14.89c0,.16-.07.24-.22.24h-1.17ZM70.88,183.13h7.56c1.39,0,2.58-.5,3.57-1.48s1.48-2.18,1.48-3.57-.5-2.59-1.48-3.59c-.99-.99-2.18-1.48-3.57-1.48h-7.56s0,10.12,0,10.12ZM83.04,196.3c-.09,0-.16-.04-.21-.12l-6.36-11.61,1.45-.78,6.66,12.17c.05.07.05.15,0,.23-.05.08-.12.12-.21.12h-1.32Z"/>
        <path class="cls-2" d="M103.4,174.93c-.1.1-.21.11-.31.02-.09-.07-.18-.14-.26-.21-.13-.08-.25-.17-.37-.26-.31-.22-.62-.42-.91-.59-.73-.38-1.49-.66-2.28-.84-.59-.12-1.09-.18-1.5-.19h-.4s-.42,0-.42,0c-.14,0-.29.01-.45.04l-.21.02-.21.02c-.67.09-1.24.23-1.71.42-.6.23-1.1.55-1.48.96-.42.42-.71.94-.89,1.57l-.05.24c-.02.09-.03.17-.03.24-.04.21-.05.37-.05.49l-.02.26v.02s0,.02,0,.02v-.05s0,.04,0,.04v.09s.02.14.02.14l.02.3.04.21.02.1.04.12.07.23c.01.06.04.13.09.23l.05.1.05.12.12.21.12.21.09.1.07.1c.06.08.11.14.16.19.43.48,1.01.93,1.74,1.36.55.31,1.27.67,2.16,1.06l.3.12.3.14.57.26,1.13.52c.93.42,1.71.82,2.33,1.22.86.55,1.56,1.13,2.09,1.74.64.75,1.05,1.6,1.24,2.52l.07.35c.02.14.03.25.03.35l.02.35.02.17v.05s0,.02,0,.02v.03s0,.09,0,.09l-.02.3-.02.14v.17s-.05.35-.05.35l-.05.35c-.19.92-.55,1.72-1.1,2.42-.52.67-1.18,1.21-1.97,1.62-.63.33-1.36.58-2.19.77l-.26.05-.28.04c-.21.05-.38.07-.52.07l-.52.05-.51.02-.24.02h-.12s-.09,0-.09,0h-.07s-.45-.02-.45-.02c-.13,0-.28-.01-.45-.03l-.24-.02-.24-.04c-.53-.06-1.11-.17-1.72-.33-.92-.25-1.79-.62-2.63-1.1-.31-.19-.61-.38-.89-.57-.22-.15-.43-.31-.63-.47-.13-.1-.24-.2-.35-.3-.12-.12-.12-.23,0-.35l.85-.8c.1-.1.21-.1.33,0,.07.06.14.12.21.17.16.14.34.27.52.4.24.17.5.34.77.49.72.42,1.47.73,2.25.94.53.15,1.03.25,1.48.31l.19.02.19.02c.15.02.3.04.44.04l.45.02h.05s.04,0,.04,0l.1-.02h.23s.44-.02.44-.02l.45-.04c.13-.01.28-.03.45-.05l.23-.05.24-.03c.69-.15,1.27-.35,1.76-.61.58-.29,1.06-.68,1.44-1.17.39-.51.66-1.1.8-1.78l.03-.23.04-.24s.02-.08.02-.14v-.14s.02-.3.02-.3v-.09s0-.04,0-.04v-.02s0,.03,0,.03v-.02s0-.12,0-.12l-.02-.26c0-.07,0-.16-.02-.26l-.04-.12-.02-.12c-.14-.67-.44-1.28-.91-1.83-.73-.86-2.01-1.71-3.85-2.56l-1.17-.52-.56-.28-.26-.12-.3-.12c-.95-.42-1.72-.8-2.32-1.15-.87-.52-1.57-1.08-2.11-1.67-.07-.07-.15-.16-.23-.26l-.1-.14-.1-.14c-.16-.25-.28-.46-.37-.61l-.07-.17-.07-.16c-.06-.13-.1-.24-.12-.33l-.1-.33-.04-.19-.04-.17-.07-.37v-.3s-.02-.14-.02-.14v-.09s0-.04,0-.04v-.05s0-.01,0,0v-.02s0-.33,0-.33c.01-.17.04-.39.07-.66.01-.09.03-.2.05-.31l.09-.31c.23-.91.66-1.66,1.27-2.26.54-.55,1.22-.98,2.02-1.31.59-.23,1.29-.4,2.09-.51l.26-.02.26-.02c.19-.02.34-.03.47-.03h.47s.47.02.47.02c.5.01,1.08.08,1.74.21.93.21,1.82.54,2.67.99.32.17.63.36.91.56.22.14.44.29.64.45.07.07.18.17.33.3.12.12.12.23,0,.35l-.73.71Z"/>
        <path class="cls-2" d="M111.27,173.01v10s9.44,0,9.44,0c.16,0,.24.08.24.24v1.15c0,.16-.08.24-.24.24h-9.44s0,10.02,0,10.02h14.17c.16,0,.24.08.24.24v1.15c0,.16-.08.24-.24.24h-15.57c-.16,0-.24-.08-.24-.24v-24.45c0-.16.07-.24.23-.24h15.57c.16,0,.24.08.24.24v1.17c0,.16-.08.24-.24.24h-14.17Z"/>
        <path class="cls-2" d="M130.38,196.29c-.16,0-.24-.08-.24-.24v-24.52c0-.15.07-.23.23-.23h1.17c.16,0,.24.07.24.23v23.11s11.69,0,11.69,0c.16,0,.24.08.24.24v1.17c0,.16-.08.24-.24.24h-13.1Z"/>
        <path class="cls-2" d="M161.51,171.34c.16,0,.24.08.24.24v1.15c0,.16-.08.24-.24.24h-13.01s0,9.96,0,9.96h9.26c.16,0,.24.08.24.24v1.17c0,.16-.08.24-.24.24h-9.26s0,11.44,0,11.44c0,.16-.08.24-.24.24h-1.17c-.16,0-.24-.08-.24-.24v-24.45c0-.16.07-.24.23-.24h14.42Z"/>
      </g>
      <g>
        <path class="cls-1" d="M23.47,157.79c.1.17.07.31-.08.42-2.46,1.82-5.18,2.73-8.16,2.73-2.09,0-4.08-.47-5.99-1.41-1.84-.91-3.45-2.19-4.84-3.85-2.96-3.51-4.33-7.68-4.1-12.52.21-4.17,1.63-7.76,4.25-10.79,2.62-3.02,5.77-4.7,9.47-5.03,3.39-.3,6.5.58,9.33,2.65.15.11.18.25.08.42l-1.83,3.03c-.1.17-.22.2-.38.09-2.09-1.52-4.38-2.17-6.89-1.95-2.84.25-5.25,1.57-7.24,3.95-1.98,2.38-2.98,5.19-3.02,8.41-.04,3.49,1.04,6.49,3.24,8.98,2.19,2.49,4.82,3.73,7.91,3.73,2.2,0,4.21-.67,6.03-2,.15-.11.28-.08.38.09l1.84,3.03Z"/>
        <path class="cls-1" d="M40.59,127.29c4.12,0,7.64,1.64,10.56,4.93s4.39,7.25,4.39,11.89-1.46,8.6-4.38,11.89c-2.92,3.29-6.44,4.94-10.56,4.94s-7.64-1.64-10.56-4.93-4.39-7.25-4.39-11.89,1.46-8.6,4.38-11.89,6.44-4.94,10.56-4.94ZM40.6,156.64c3.06,0,5.68-1.22,7.87-3.67,2.17-2.45,3.25-5.4,3.25-8.86s-1.09-6.4-3.26-8.86c-2.19-2.44-4.81-3.66-7.87-3.66s-5.7,1.22-7.87,3.67c-2.17,2.46-3.25,5.41-3.25,8.86s1.09,6.41,3.26,8.86c2.17,2.44,4.79,3.66,7.87,3.66Z"/>
        <path class="cls-1" d="M74.46,127.28c4.12,0,7.64,1.64,10.56,4.93s4.39,7.25,4.39,11.89-1.46,8.6-4.38,11.89c-2.92,3.29-6.44,4.94-10.56,4.94s-7.64-1.64-10.56-4.93-4.39-7.25-4.39-11.89,1.46-8.6,4.38-11.89,6.44-4.94,10.56-4.94ZM74.47,156.62c3.06,0,5.68-1.22,7.87-3.67,2.17-2.45,3.25-5.4,3.25-8.86s-1.09-6.4-3.26-8.86c-2.19-2.44-4.81-3.66-7.87-3.66s-5.7,1.22-7.87,3.67c-2.17,2.46-3.25,5.41-3.25,8.86s1.09,6.41,3.26,8.86c2.17,2.44,4.79,3.66,7.87,3.66Z"/>
        <path class="cls-1" d="M116.84,160.39c.1.09.12.2.06.33-.04.13-.13.19-.25.19h-4.78c-.08,0-.15-.03-.19-.09l-12.32-12.99v12.78c0,.2-.09.31-.27.31h-3.28c-.18,0-.27-.1-.27-.3v-33.06c-.01-.2.08-.3.26-.3h3.28c.18,0,.27.1.27.3v12.5s11.31-12.69,11.31-12.69c.06-.06.12-.09.19-.09h4.63c.12,0,.21.06.25.19.06.13.04.24-.04.33l-14.42,16.2,15.55,16.42Z"/>
        <path class="cls-1" d="M123.28,132.03l-1-.45c-.18-.08-.24-.22-.19-.42l1.69-4.96c.07-.19.2-.24.38-.17l1,.42c.18.08.24.21.19.4l-1.69,4.98c-.07.2-.19.27-.37.19Z"/>
        <path class="cls-1" d="M136.84,127.25c.18,0,.27.1.27.31v33.04c.01.2-.08.31-.26.31h-3.28c-.18,0-.27-.1-.27-.3v-33.04c-.01-.2.08-.31.26-.31h3.28Z"/>
        <path class="cls-1" d="M161.91,127.25c.18,0,.27.1.27.31v3.67c0,.2-.09.31-.27.31h-7.83s0,29.07,0,29.07c0,.2-.09.31-.27.31h-3.25c-.18,0-.27-.1-.27-.3v-29.07s-7.86,0-7.86,0c-.18,0-.27-.1-.27-.31v-3.67c0-.2.09-.31.27-.31h19.47Z"/>
      </g>
    </g>
  </g>
</svg>