<?xml version="1.0" encoding="UTF-8"?>
<svg id="Calque_2" data-name="Calque 2" xmlns="http://www.w3.org/2000/svg" viewBox="0 0 69.96 101.01">
  <defs>
    <style>
      .cls-1 {
        fill: #3a5777;
      }

      .cls-1, .cls-2 {
        stroke-width: 0px;
      }

      .cls-2 {
        fill: #5892b2;
      }
    </style>
  </defs>
  <g id="Calque_1-2" data-name="Calque 1">
    <g>
      <path class="cls-1" d="M53.08,10.66s.08,14.93.08,27.8c0,.16,0,.33,0,.56,3.42-1.38,7-2.71,10.58-3.49V0s6.2,0,6.2,0c0,0,0,28.63.01,40.84-.89,0-2.51.2-3.61.42-3.16.63-6.29,1.46-9.31,2.6-6.97,2.63-13.18,6.39-18.62,11.29-.5.46-.97.96-1.45,1.43-.13.13-.2.26-.18.44,0,.11,0,.23,0,.35,0,14.53,0,29.06.01,43.59l-.05.05h-6.09s-.02-.01-.03-.02c-.38-1.93-.73-3.86-1.15-5.78-2.02-9.43-5.2-18.45-9.54-27.06-4.2-8.34-9.36-16.03-15.47-23.09-1.3-1.51-2.62-3-4.21-4.22-.05-.04-.1-.08-.15-.13-.03-.04-.06-.08-.12-.16,1.26-1.49,2.53-2.98,3.79-4.47.17.13,18.21-.02,27.08-.02V.01c2,0,4.24,0,6.22,0,0,.2,0,48.72.02,48.84,0,0,.18-.5.57-.88,2.51-2.47,5.64-4.45,8.76-5.75.59-.25.43-.48.43-.48-.02-13.76-.01-31.08-.01-31.08h6.22ZM9.71,42.01c.85,1.04,1.66,2.02,2.45,3.02.79,1,1.57,2,2.33,3.02.77,1.03,1.52,2.07,2.25,3.13.73,1.04,1.43,2.1,2.13,3.17.7,1.08,1.38,2.17,2.04,3.27.66,1.09,1.29,2.19,1.92,3.3.63,1.12,1.24,2.25,1.83,3.39.58,1.13,1.15,2.27,1.7,3.41.55,1.16,1.09,2.33,1.6,3.5.51,1.16,1,2.34,1.47,3.52.48,1.18.93,2.38,1.43,3.56,0-12.09,0-24.19-.01-36.3H9.71Z"/>
      <path class="cls-2" d="M59.74,73.1c-.34-2.13-2.09-3.86-4.22-4.18-3.38-.5-6.22,2.31-5.79,5.71.27,2.13,1.96,3.91,4.08,4.29,3.48.63,6.48-2.34,5.93-5.82Z"/>
    </g>
  </g>
</svg>