<?xml version="1.0" encoding="UTF-8"?>
<svg id="Calque_2" data-name="Calque 2" xmlns="http://www.w3.org/2000/svg" viewBox="0 0 17.95 17.84">
  <defs>
    <style>
      .cls-1 {
        fill: #f4efeb;
        stroke-width: 0px;
      }
    </style>
  </defs>
  <g id="Calque_1-2" data-name="Calque 1">
    <g>
      <path class="cls-1" d="M.02,8.91C.02,4.01,4.06,0,9.03.02c4.87.02,8.78,3.96,8.9,8.68.12,4.97-3.94,9.1-8.9,9.11C4.04,17.82.02,13.83.02,8.91ZM5.82,16.18c0-.06,0-.11,0-.16,0-.57.04-1.14.18-1.7.32-1.33.66-2.65,1-3.98.02-.07.01-.13-.01-.2-.24-.64-.29-1.3-.11-1.96.12-.45.34-.84.75-1.09.67-.4,1.62-.17,1.72.88.03.32-.03.64-.11.95-.16.66-.39,1.3-.56,1.95-.13.51.03,1,.46,1.3.42.3.88.31,1.36.15.57-.19.95-.6,1.24-1.1.62-1.1.81-2.29.67-3.52-.1-.91-.57-1.62-1.38-2.09-.52-.3-1.09-.43-1.68-.45-1.11-.05-2.1.24-2.93,1-.72.66-1.11,1.5-1.2,2.46-.07.7.03,1.37.5,1.94.1.12.1.27.05.41-.07.21-.13.43-.19.64-.04.15-.1.19-.25.19-.08,0-.16-.03-.23-.07-.48-.22-.85-.56-1.09-1.02-.48-.93-.56-1.91-.32-2.91.38-1.55,1.34-2.65,2.76-3.36.83-.41,1.72-.59,2.64-.61,1.39-.04,2.64.32,3.7,1.24.86.74,1.4,1.68,1.52,2.81.13,1.22-.06,2.39-.58,3.51-.36.78-.88,1.42-1.61,1.89-.69.44-1.45.64-2.26.57-.71-.06-1.32-.35-1.75-.95,0,.02-.02.03-.02.05-.1.4-.2.8-.3,1.19-.14.55-.26,1.11-.52,1.63-.12.24-.25.47-.38.71-.03.06-.03.09.04.11.89.24,1.79.35,2.7.26,1.61-.14,3.07-.69,4.32-1.7,2.2-1.8,3.21-4.12,3-6.95-.09-1.19-.47-2.3-1.08-3.33-1.61-2.7-4.63-4.21-7.77-3.86-1.58.17-3,.75-4.21,1.78C1.42,4.92.56,7.62,1.26,10.76c.5,2.23,1.84,3.89,3.81,5.05.23.14.48.26.75.37Z"/>
      <path class="cls-1" d="M9.01,17.84c-2.42,0-4.69-.94-6.39-2.63-1.69-1.68-2.62-3.92-2.62-6.29S.93,4.32,2.62,2.63C4.32.93,6.59,0,9,0h.03c2.35,0,4.57.92,6.25,2.58,1.67,1.64,2.62,3.82,2.67,6.12.06,2.4-.84,4.68-2.54,6.42-1.7,1.75-3.97,2.71-6.39,2.72h-.02ZM.04,8.91c0,2.36.93,4.59,2.6,6.26,1.7,1.69,3.95,2.62,6.36,2.62h.02c2.4,0,4.66-.96,6.36-2.7,1.69-1.73,2.58-4,2.53-6.39-.05-2.29-1-4.46-2.66-6.09C13.57.96,11.36.05,9.03.04h-.03C6.6.04,4.34.97,2.65,2.66.97,4.34.04,6.56.04,8.91H.04ZM9.02,16.9c-.68,0-1.37-.1-2.1-.29-.03,0-.06-.02-.08-.05-.01-.03,0-.05.02-.09.11-.21.25-.46.38-.71.21-.43.33-.89.45-1.34.02-.09.05-.19.07-.28.07-.26.13-.53.2-.79.03-.13.07-.26.1-.4,0-.01,0-.02.01-.03,0,0,0-.01,0-.02v-.03s.04.03.04.03c.41.57.99.88,1.73.95.1,0,.2.01.3.01.68,0,1.34-.19,1.95-.58.68-.43,1.22-1.06,1.6-1.88.51-1.11.71-2.29.58-3.5-.12-1.08-.63-2.02-1.51-2.79-.96-.83-2.1-1.24-3.49-1.24-.07,0-.13,0-.2,0-1,.03-1.85.23-2.63.61-1.46.73-2.39,1.86-2.75,3.35-.25,1.03-.15,2.01.32,2.9.24.46.6.8,1.08,1.01.07.03.14.06.22.06.14,0,.19-.04.23-.18.06-.22.12-.43.19-.64.06-.17.04-.29-.04-.39-.42-.51-.59-1.13-.51-1.95.09-.99.5-1.83,1.2-2.48.74-.68,1.63-1.01,2.71-1.01.08,0,.15,0,.23,0,.65.03,1.21.18,1.69.46.81.47,1.29,1.19,1.39,2.1.14,1.3-.08,2.49-.67,3.53-.32.57-.73.94-1.25,1.11-.52.18-.98.12-1.37-.16-.43-.31-.6-.8-.47-1.32.08-.3.17-.61.26-.9.11-.34.21-.7.3-1.05.07-.3.14-.62.11-.94-.04-.44-.24-.77-.57-.93-.34-.17-.77-.14-1.12.08-.36.22-.61.57-.74,1.07-.17.65-.14,1.3.11,1.94.03.07.03.14.01.21-.37,1.45-.7,2.75-1,3.98-.12.49-.17,1.01-.18,1.7v.19h-.03c-.24-.11-.48-.22-.75-.38-2.06-1.21-3.35-2.91-3.82-5.06-.71-3.19.18-5.87,2.63-7.99,1.17-1.01,2.59-1.61,4.22-1.79.3-.03.59-.05.89-.05,1.24,0,2.47.29,3.58.84,1.38.69,2.53,1.75,3.32,3.08.63,1.06,1,2.19,1.08,3.34.21,2.82-.8,5.17-3.01,6.96-1.21.99-2.67,1.56-4.33,1.71-.2.02-.4.03-.61.03ZM8.1,12.94s0,0,0,.01c-.03.13-.07.27-.1.4-.06.26-.13.53-.2.79-.02.09-.05.19-.07.28-.12.45-.23.92-.45,1.35-.12.25-.26.51-.38.71,0,.01-.02.04-.02.05,0,0,.01.01.05.02.95.25,1.84.34,2.7.26,1.65-.15,3.1-.72,4.3-1.7,2.19-1.79,3.2-4.12,2.99-6.93-.08-1.15-.45-2.26-1.08-3.32-.79-1.32-1.93-2.38-3.3-3.06-1.37-.68-2.91-.96-4.45-.79-1.62.18-3.03.78-4.19,1.78C1.46,4.91.58,7.59,1.28,10.76c.47,2.14,1.75,3.83,3.8,5.04.26.15.49.26.71.36v-.13c0-.69.06-1.21.18-1.71.3-1.22.63-2.52,1-3.98.02-.07.01-.12-.01-.19-.25-.65-.29-1.32-.11-1.97.14-.51.39-.87.76-1.1.37-.22.81-.25,1.16-.08.34.17.55.51.59.97.03.33-.04.66-.11.96-.09.35-.2.71-.3,1.05-.09.29-.18.6-.26.9-.13.51.04.98.45,1.28.38.27.83.32,1.34.15s.91-.53,1.23-1.09c.58-1.04.81-2.21.67-3.5-.1-.91-.56-1.6-1.37-2.07-.48-.28-1.03-.43-1.67-.45-.08,0-.15,0-.23,0-1.07,0-1.96.33-2.69,1-.7.64-1.1,1.47-1.19,2.45-.08.81.08,1.42.5,1.92.13.15.09.32.05.44-.07.21-.13.42-.19.64-.04.16-.11.21-.27.21-.09,0-.17-.04-.24-.07-.49-.22-.86-.57-1.1-1.03-.47-.9-.58-1.88-.32-2.93.37-1.5,1.3-2.64,2.78-3.38.78-.39,1.65-.59,2.65-.62,1.49-.04,2.71.37,3.72,1.24.89.77,1.41,1.72,1.53,2.82.13,1.22-.06,2.4-.58,3.52-.38.82-.92,1.46-1.62,1.9-.71.45-1.47.64-2.28.57-.74-.06-1.33-.38-1.74-.94Z"/>
    </g>
  </g>
</svg>