<?xml version="1.0" encoding="UTF-8"?>
<svg id="Calque_2" data-name="Calque 2" xmlns="http://www.w3.org/2000/svg" viewBox="0 0 15.19 17.51">
  <defs>
    <style>
      .cls-1 {
        fill: #f4efeb;
        stroke-width: 0px;
      }
    </style>
  </defs>
  <g id="Calque_1-2" data-name="Calque 1">
    <path class="cls-1" d="M5.52,17.51c-.63,0-1.28-.11-1.95-.37C1.42,16.32-.05,14.12,0,11.8c.04-1.92,1.13-3.26,1.6-3.75,1.78-1.85,4.11-1.82,4.79-1.78l.38.42c0,.22,0,2.64,0,2.64l-.39.41s-.71.04-1.26.16c-.57.12-1.02.52-1.23.82-.48.69-.41,1.8.14,2.48.74.9,2.29.96,3.08.42.85-.58.84-2.04.82-5.93v-.66c-.02-3.02-.01-5.38,0-6.61l.41-.41h2.15l.41.37c.05.49.27,1.73,1.35,2.7.98.88,2.11,1.03,2.55,1.05l.39.41v2.48l-.44.41c-.7-.04-1.4-.15-2.07-.34-.5-.14-.99-.32-1.46-.55,0,1.13,0,2.04,0,2.62v.7c.02,2.26.02,2.95-.36,3.91-.15.39-.62,1.57-1.78,2.48-.86.68-2.14,1.25-3.58,1.25ZM5.94,7.09c-.79,0-2.46.2-3.75,1.54-.4.42-1.34,1.56-1.37,3.19-.04,1.98,1.21,3.85,3.04,4.56,1.87.72,3.7.04,4.71-.76.98-.78,1.38-1.77,1.52-2.14.32-.82.32-1.41.31-3.6v-.7c0-.7-.01-1.85,0-3.31l.62-.36c.6.34,1.24.6,1.89.79.48.13.96.23,1.46.28v-1.65c-.7-.09-1.73-.38-2.67-1.23-1.08-.97-1.44-2.15-1.57-2.87h-1.38c0,1.3-.01,3.48,0,6.19v.66c.03,4.21.04,5.79-1.17,6.62-1.12.77-3.15.69-4.18-.57-.79-.96-.87-2.48-.19-3.47.31-.45.93-.99,1.74-1.16.34-.07.72-.12.99-.14,0-.49,0-1.35,0-1.86Z"/>
  </g>
</svg>