<?xml version="1.0" encoding="UTF-8"?>
<svg id="Calque_2" data-name="Calque 2" xmlns="http://www.w3.org/2000/svg" viewBox="0 0 118.89 106.8">
  <defs>
    <style>
      .cls-1 {
        fill: #3a5777;
        stroke-width: 0px;
      }
    </style>
  </defs>
  <g id="Calque_1-2" data-name="Calque 1">
    <g>
      <path class="cls-1" d="M58.91,106.8C28.09,106.8,1.92,82,0,50.39l2.5-2.65h112.64l2.5,2.65c-1.79,30.31-26.48,55.06-56.22,56.36-.84.04-1.67.05-2.5.05ZM5.21,52.74c3.01,27.7,26.36,49.06,53.69,49.06.76,0,1.52-.02,2.29-.05,26.34-1.15,48.37-22.45,51.23-49.01H5.21Z"/>
      <path class="cls-1" d="M10.9,51.89c-1.59-1.81-4.28-5.67-4.48-11.25-.16-4.44,1.38-7.95,2.73-10.14-3.01-3.25-4.8-7.51-4.97-12-.2-5.13,1.7-10.06,5.22-13.51C12.95,1.51,17.94-.29,23.12.04c4.54.29,8.8,2.22,11.98,5.38,6.77-3.72,15.27-2.75,20.98,2.62,5.47,5.16,3.88,16.1,3.07,20.1,1.66,1.88,3.82,5.03,4.7,9.35,1.35,6.69-1.19,12.08-2.34,14.09l-4.33-2.49c.87-1.52,2.79-5.59,1.77-10.6-.8-3.93-3.02-6.57-4.27-7.79l-.68-2.39c.8-3.23,2.26-13.21-1.34-16.61-4.51-4.26-11.47-4.67-16.53-1l-3.43-.48c-2.39-3.04-5.99-4.92-9.88-5.18-3.75-.24-7.36,1.04-9.89,3.53-2.52,2.47-3.87,6.02-3.73,9.74.15,3.87,1.93,7.5,4.87,9.96l.33,3.5c-.94,1.14-3.1,4.29-2.95,8.7.15,4.17,2.31,7.07,3.24,8.12l-3.76,3.3Z"/>
      <rect class="cls-1" x="35.83" y="8.77" width="5" height="48.99" transform="translate(-12.21 37.85) rotate(-46.13)"/>
      <path class="cls-1" d="M84.29,18.79c-.92-6.34-5.5-11.46-11.68-13.02-6.04-1.53-12.43.68-16.27,5.62l-3.95-3.07c5.06-6.52,13.48-9.42,21.45-7.41,8.15,2.07,14.2,8.8,15.41,17.16l-4.95.71Z"/>
      <polygon class="cls-1" points="92.92 52.16 89.52 48.49 102.38 36.59 101.41 31.86 92.83 22.1 87.71 21.15 61.9 50.6 58.14 47.3 84.88 16.79 87.22 15.97 94.59 17.35 96.01 18.15 105.6 29.06 106.17 30.21 107.56 36.96 106.81 39.3 92.92 52.16"/>
      <path class="cls-1" d="M100.77,26.78l-4.01-2.98c1.84-2.47,3.1-5.37,3.66-8.39.53-2.86.42-5.87-.3-8.7l4.84-1.25c.91,3.53,1.04,7.28.38,10.85-.7,3.77-2.27,7.39-4.57,10.47Z"/>
      <path class="cls-1" d="M100.4,27.19l-3.26-3.79c2.67-2.29,5.86-3.96,9.24-4.81,5.18-1.32,9.67-.52,12.51.38l-1.51,4.77c-2.23-.71-5.73-1.33-9.78-.3-2.64.67-5.13,1.97-7.21,3.76Z"/>
    </g>
  </g>
</svg>