<?xml version="1.0" encoding="UTF-8"?>
<svg id="Calque_2" data-name="Calque 2" xmlns="http://www.w3.org/2000/svg" viewBox="0 0 131.93 107.86">
  <defs>
    <style>
      .cls-1 {
        fill: #3a5777;
        stroke-width: 0px;
      }
    </style>
  </defs>
  <g id="Calque_1-2" data-name="Calque 1">
    <g>
      <g>
        <path class="cls-1" d="M4.36,101.09l-4.36-1.67V2.5L2.5,0h109.25l2.5,2.52-.59,67.8-2.5,2.48H29.67l-25.3,28.29ZM5,5v87.88l21.69-24.24,1.86-.83h80.14l.54-62.8H5Z"/>
        <polygon class="cls-1" points="127.24 107.86 106.71 89.96 31.29 89.71 28.8 87.19 28.95 70.76 33.95 70.8 33.83 84.72 107.66 84.97 109.3 85.58 126.41 100.51 126.91 23.61 113.17 23.46 113.23 18.46 129.46 18.64 131.93 21.16 131.38 105.99 127.24 107.86"/>
      </g>
      <path class="cls-1" d="M73.59,56.15h-30.47l-2.5-2.5v-5.6c-5.24-1.57-9.11-6.12-9.14-11.14-.02-3.16,1.49-6.28,4.16-8.58,2.3-1.98,5.2-3.09,8.22-3.21.5-3.08,1.99-5.95,4.27-8.14,2.84-2.73,6.62-4.16,10.39-3.91,6.51.42,11.8,5.59,12.83,12.04,1.41.05,2.79.32,4.08.81,4.02,1.53,8.33,5.62,8.28,10.99-.02,2.9-1.35,5-1.91,5.89-1.65,2.6-3.9,4.1-5.71,4.94v5.91l-2.5,2.5ZM45.62,51.15h25.47v-5.12l1.75-2.38c1.17-.37,3.33-1.31,4.73-3.52.39-.62,1.12-1.78,1.14-3.25.02-2.82-2.59-5.34-5.06-6.28-1.29-.49-2.75-.62-4.22-.38l-2.91-2.54c.15-5-3.58-9.31-8.33-9.62-2.37-.17-4.77.77-6.6,2.53-1.93,1.85-3,4.44-2.93,7.1l-2.89,2.53c-2.5-.4-5.01.3-6.88,1.9-1.53,1.31-2.43,3.09-2.42,4.75.02,2.78,2.69,6.13,6.96,6.68l2.18,2.48v5.12Z"/>
    </g>
  </g>
</svg>