<?xml version="1.0" encoding="UTF-8"?>
<svg id="Calque_2" data-name="Calque 2" xmlns="http://www.w3.org/2000/svg" viewBox="0 0 181.44 107.16">
  <defs>
    <style>
      .cls-1 {
        fill: #3a5777;
        stroke-width: 0px;
      }
    </style>
  </defs>
  <g id="Calque_1-2" data-name="Calque 1">
    <g>
      <path class="cls-1" d="M166.93,107.16H13.84l-.87-.16c-2.57-.95-6.23-2.91-9.14-6.85C.18,95.16-.12,89.9.03,87.21l2.51-2.36,176.38,1.33,2.48,2.35c.15,2.49-.13,6.25-2.33,10.05-3.45,5.98-9.23,7.94-11.56,8.5l-.59.07ZM14.31,102.16h152.3c1.59-.43,5.73-1.91,8.13-6.07.99-1.72,1.44-3.44,1.61-4.92l-171.27-1.29c.21,2.08.9,4.75,2.79,7.32,2.1,2.86,4.8,4.3,6.44,4.97Z"/>
      <path class="cls-1" d="M144.63,90.85h-53.91l-2.31-1.55c-3.5-8.52-6.02-17.44-7.48-26.51-1.77-11-2-22.2-.68-33.31l2.48-2.21h69.89l2.5,2.35c.65,10.6.19,21.3-1.35,31.8-1.39,9.41-3.66,18.74-6.77,27.74l-2.36,1.68ZM92.41,85.85h50.43c2.71-8.19,4.72-16.64,5.98-25.15,1.38-9.38,1.86-18.93,1.43-28.42h-65.28c-.99,9.92-.69,19.9.89,29.72,1.31,8.15,3.51,16.16,6.54,23.86Z"/>
      <path class="cls-1" d="M155.08,68.23c-.17,0-.34,0-.51,0h-6.16l.4-2.85c.55-3.91.99-7.89,1.32-11.84.34-4.15.56-8.36.66-12.5l.05-2.44h3.78c4.35-.11,8.64,1.65,11.7,4.86,2.92,3.07,4.42,7.14,4.11,11.15-.6,7.62-7.42,13.63-15.33,13.63ZM154.14,63.22h.56c5.52.15,10.33-3.84,10.73-9.01.2-2.6-.8-5.26-2.75-7.31-1.84-1.93-4.34-3.1-6.98-3.28-.12,3.44-.32,6.9-.6,10.33-.25,3.09-.58,6.19-.97,9.28Z"/>
      <path class="cls-1" d="M157.37,76.88c-.27,0-.54,0-.8-.01-2.76,0-5.88-.07-8.07-.79l-1.97-.66.29-2.06c.25-1.78.52-3.6.8-5.44.71-4.65,1.43-9.46,1.84-14.39l.11-1.29c.55-6.69,1.08-13,1.22-19.2l.06-2.44h2.44c.4,0,1.06.04,1.72.08.54.03,1.08.07,1.42.07,6.79-.2,13.5,2.57,18.25,7.57,4.54,4.77,6.86,11.06,6.38,17.26-.93,11.91-11.46,21.3-23.67,21.3ZM152.1,71.71c1.59.16,3.44.16,4.51.16h.09c9.95.35,18.61-7.13,19.36-16.68.38-4.79-1.45-9.68-5.01-13.43-3.78-3.97-9.08-6.17-14.56-6.01-.23.01-.49,0-.78-.02-.21,5.5-.67,11.08-1.15,16.93l-.11,1.29c-.42,5.1-1.16,9.99-1.88,14.72-.16,1.02-.31,2.04-.46,3.04Z"/>
      <rect class="cls-1" x="131.6" y="53.9" width="18.74" height="5" transform="translate(69.86 190.55) rotate(-83.88)"/>
      <rect class="cls-1" x="133.72" y="72.54" width="7.17" height="5" transform="translate(16.64 174.65) rotate(-68.19)"/>
      <polygon class="cls-1" points="11.86 89.53 8.5 85.83 89.04 12.62 93.22 14.47 93.22 28.44 88.22 28.44 88.22 20.12 11.86 89.53"/>
      <polygon class="cls-1" points="106.09 22.16 101.32 20.65 103.3 14.44 99.47 10.43 99.02 7.62 102.66 0 107.17 2.15 104.28 8.22 107.94 12.06 108.51 14.54 106.09 22.16"/>
      <polygon class="cls-1" points="122.22 21.79 117.28 21.02 118.35 14.15 116.3 9.76 116.13 8.13 117.91 .51 122.78 1.65 121.19 8.43 123.2 12.72 123.41 14.17 122.22 21.79"/>
      <polygon class="cls-1" points="138.19 21.79 133.25 21.02 134.32 14.15 132.27 9.76 132.1 8.13 133.88 .51 138.75 1.65 137.17 8.43 139.18 12.72 139.38 14.17 138.19 21.79"/>
      <g>
        <circle class="cls-1" cx="71.68" cy="76.43" r="2.14"/>
        <path class="cls-1" d="M71.68,81.08c-2.56,0-4.64-2.08-4.64-4.64s2.08-4.64,4.64-4.64,4.64,2.08,4.64,4.64-2.08,4.64-4.64,4.64ZM71.68,76.08c-.2,0-.36.16-.36.36s.16.36.36.36.36-.16.36-.36-.16-.36-.36-.36Z"/>
      </g>
      <g>
        <circle class="cls-1" cx="68.35" cy="63.79" r="2.14"/>
        <path class="cls-1" d="M68.35,68.43c-2.56,0-4.64-2.08-4.64-4.64s2.08-4.64,4.64-4.64,4.64,2.08,4.64,4.64-2.08,4.64-4.64,4.64ZM68.35,63.43c-.2,0-.36.16-.36.36s.16.36.36.36.36-.16.36-.36-.16-.36-.36-.36Z"/>
      </g>
      <g>
        <circle class="cls-1" cx="59.03" cy="76.43" r="2.14"/>
        <path class="cls-1" d="M59.03,81.08c-2.56,0-4.64-2.08-4.64-4.64s2.08-4.64,4.64-4.64,4.64,2.08,4.64,4.64-2.08,4.64-4.64,4.64ZM59.03,76.08c-.2,0-.36.16-.36.36s.16.36.36.36.36-.16.36-.36-.16-.36-.36-.36Z"/>
      </g>
      <path class="cls-1" d="M6.86,88.98c-3.12-4.11-3.41-9.62-.72-13.4,1.64-2.3,4.33-3.84,7.39-4.23,3.41-.43,6.9.62,9.58,2.89l-3.23,3.82c-1.62-1.37-3.71-2-5.73-1.75-1.67.21-3.11,1-3.94,2.17-1.42,1.99-1.15,5.13.63,7.48l-3.98,3.02Z"/>
      <path class="cls-1" d="M23.98,78.37l-1.69-2.12c-5.86-7.36-6.68-17.34-1.98-24.27,2.83-4.18,7.62-7.05,13.13-7.87,6.23-.93,12.67.86,17.7,4.91l2.24,1.8-29.4,27.55ZM36.7,48.87c-.84,0-1.68.06-2.52.19-4.13.62-7.68,2.71-9.73,5.73-2.98,4.4-2.81,10.82.22,16.08l20.92-19.61c-2.73-1.57-5.8-2.39-8.89-2.39Z"/>
      <polygon class="cls-1" points="38.64 65.56 24.82 65.56 24.82 60.56 33.64 60.56 33.64 53.07 38.64 53.07 38.64 65.56"/>
      <path class="cls-1" d="M49.13,50.67c-2.82-7.04-3.83-12.77.4-17.84,3.25-3.9,8.44-4.37,11.17-4.32.5-.77,1.2-1.62,2.04-2.16.79-.51,1.69-.78,2.51-.93.6-2.52,2.3-6.42,7.15-8.58,7.88-3.5,14-.03,14.26.12l-2.52,4.32c-.15-.08-4.24-2.3-9.71.12-4.37,1.94-4.5,6.21-4.51,6.39l-.05,2.62-2.62-.15c-.58-.04-1.5.08-1.8.27-.25.18-.79.97-1.09,1.62l-.79,1.68-1.84-.26s-5.71-.74-8.37,2.45c-2.35,2.82-2.25,6.17.4,12.78l-4.64,1.86Z"/>
    </g>
  </g>
</svg>