<?xml version="1.0" encoding="UTF-8"?>
<svg id="Calque_2" data-name="Calque 2" xmlns="http://www.w3.org/2000/svg" viewBox="0 0 134.74 107.44">
  <defs>
    <style>
      .cls-1 {
        fill: #3a5777;
        stroke-width: 0px;
      }
    </style>
  </defs>
  <g id="Calque_1-2" data-name="Calque 1">
    <g>
      <g>
        <path class="cls-1" d="M61.03,33.42c-.75,0-1.47-.32-1.97-.88-.93-1.03-.78-2.27-.59-3.83.28-2.33.47-4.86-.8-5.38l-1.48-2.9c2.02-8.37,5.98-9.69,10.56-10.45.09-.02.17-.07.2-.14C70.63.41,80.37-1.18,86.13.69c5.28,1.55,11.59,5.79,11.8,17.22v.22c.01.11.02.24.02.37,2.27.35,4.34,1.63,5.77,3.59,1.64,2.26,2.22,5.05,1.57,7.67-.03.14-.04.26-.05.36-.24,2.79-2.37,3.09-3.29,3.09h-.02c-10.83-.04-36.93.15-40.87.21h-.03ZM61.52,19.93c2.41,2.26,2.28,6,2.02,8.46,7.49-.07,26.93-.2,36.97-.18.16-1.07-.14-2.24-.82-3.18-.7-.96-1.7-1.55-2.75-1.62-.55-.04-2.22-.15-3.26-1.47-1.02-1.28-.79-2.81-.71-3.31,0-.07,0-.17-.01-.28v-.36c-.14-6.85-2.83-10.94-8.25-12.52l-.08-.03c-3.06-1-10.26-.81-13.01,6.2-.66,1.7-2.21,2.95-4.03,3.25-2.95.49-4.71.79-6.06,5.03Z"/>
        <path class="cls-1" d="M123.14,88.3H11.51l-2.41-3.17,15.26-54.88,2.41-1.83h80.31l2.4,1.8,16.06,54.88-2.4,3.2ZM14.8,83.3h105.01l-14.6-49.88H28.67l-13.87,49.88Z"/>
        <path class="cls-1" d="M117.66,107.44H18.87l-1.87-.84L0,87.46l1.87-4.16h130.91l1.96,4.05-15.13,19.14-1.96.95ZM19.99,102.44h96.45l11.17-14.14H7.43l12.56,14.14Z"/>
        <path class="cls-1" d="M45.37,32.62c-4.11,0-7.45-3.34-7.45-7.45s3.34-7.45,7.45-7.45,7.45,3.34,7.45,7.45-3.34,7.45-7.45,7.45ZM45.37,22.71c-1.35,0-2.45,1.1-2.45,2.45s1.1,2.45,2.45,2.45,2.45-1.1,2.45-2.45-1.1-2.45-2.45-2.45Z"/>
        <path class="cls-1" d="M55.81,32.62c-4.11,0-7.45-3.34-7.45-7.45s3.34-7.45,7.45-7.45,7.45,3.34,7.45,7.45-3.34,7.45-7.45,7.45ZM55.81,22.71c-1.35,0-2.45,1.1-2.45,2.45s1.1,2.45,2.45,2.45,2.45-1.1,2.45-2.45-1.1-2.45-2.45-2.45Z"/>
        <path class="cls-1" d="M50.73,23.78c-4.11,0-7.45-3.34-7.45-7.45s3.34-7.45,7.45-7.45,7.45,3.34,7.45,7.45-3.34,7.45-7.45,7.45ZM50.73,13.88c-1.35,0-2.45,1.1-2.45,2.45s1.1,2.45,2.45,2.45,2.45-1.1,2.45-2.45-1.1-2.45-2.45-2.45Z"/>
      </g>
      <path class="cls-1" d="M85.92,52c-1.46,0-2.88-.46-4.07-1.35-1.8-1.34-2.85-3.49-2.89-5.88-.07-3.94-.05-7.89-.01-11.09-1.78.03-3.64.03-5.65,0,.02,1.25,0,2.52-.11,3.81-.35,3.78-3.43,6.4-7.33,6.22-3.65-.16-6.48-3.09-6.58-6.8-.03-.96-.06-2.09-.03-3.26-1.42,0-2.43,0-3.11,0-1.18,0-3.63-.02-3.65-2.5-.02-1.78.93-2.32,2.72-2.51h0s.03,0,.05,0c.71-.07,1.56-.09,2.53-.11,1.43-.03,2.86-.06,2.86-.06h31.54c.09,0,.87.03,1.64.06,1.58.07,3.98.17,3.93,2.65-.02,1.12-.6,2.45-3.2,2.47-.36,0-.88,0-1.58,0,.04,3.91.02,7.85,0,11.28-.02,3.23-2.08,5.96-5.13,6.8-.63.18-1.27.26-1.91.26ZM83.95,33.47c-.03,3.22-.06,7.23.01,11.22.01.84.33,1.55.88,1.96.32.24.87.49,1.65.27.91-.25,1.46-1.01,1.47-2.02.02-3.48.04-7.48,0-11.44h-4.01ZM64.24,33.47c-.04,1.12,0,2.27.02,3.3.03,1.08.79,1.9,1.81,1.95.95.04,2-.38,2.13-1.68.11-1.15.11-2.33.09-3.57h-4.05Z"/>
    </g>
  </g>
</svg>