<?xml version="1.0" encoding="UTF-8"?>
<svg id="Calque_2" data-name="Calque 2" xmlns="http://www.w3.org/2000/svg" viewBox="0 0 131.37 85.23">
  <defs>
    <style>
      .cls-1 {
        fill: #3a5777;
        stroke-width: 0px;
      }
    </style>
  </defs>
  <g id="Calque_1-2" data-name="Calque 1">
    <path class="cls-1" d="M131.34,64.62l-2.5-2.38h-13c.32-15.62-4.58-29.1-14.2-39-8.58-8.83-20.75-14.31-32.96-14.93V0h-5v8.31c-12.37.66-24.2,5.91-32.79,14.63-9.71,9.86-14.73,23.44-14.53,39.3H2.85l-2.45,2c-.52,2.52-.98,7.52,1.74,12.67,1.86,3.52,4.47,5.71,6.35,6.93l1.28.4c18.11.65,36.48.99,54.59,1,.48,0,.96,0,1.45,0,18.64,0,37.53-.34,56.14-1l1.6-.66c2.67-2.46,4.8-5.54,6.13-8.92,1.25-3.16,1.83-6.63,1.67-10.04ZM34.46,26.44c8.27-8.4,19.89-13.21,31.88-13.21s23.51,5.04,31.72,13.48c8.69,8.94,13.1,21.22,12.79,35.52H21.37c-.2-14.52,4.33-26.89,13.09-35.79ZM125.02,72.81c-1.15,2.91-2.83,5.05-4.22,6.46-18.73.66-37.72.95-56.45.96-17.81-.02-35.87-.34-53.69-.97-1.31-.94-2.92-2.45-4.1-4.69-1.43-2.7-1.65-5.36-1.53-7.33h121.28c-.15,1.91-.59,3.81-1.29,5.58Z"/>
  </g>
</svg>