<?xml version="1.0" encoding="UTF-8"?>
<svg id="Calque_2" data-name="Calque 2" xmlns="http://www.w3.org/2000/svg" viewBox="0 0 1225.72 787.12">
  <defs>
    <style>
      .cls-1 {
        fill: #1d1d1b;
      }

      .cls-1, .cls-2 {
        stroke-width: 0px;
      }

      .cls-2 {
        fill: #3a5777;
      }
    </style>
  </defs>
  <g id="Calque_1-2" data-name="Calque 1">
    <g>
      <g>
        <path class="cls-2" d="M466.87,93.74c-18.94,0-34.37-1.26-38.52-4.43-2.5-1.91-4.2-4.18-4.27-4.28-2.62-3.53-4.09-7.92-4.27-12.72l2.83-2.98,3.97-.05c.84-28.84,25.03-57,51.94-59.81,16.45-1.72,32.51,3.27,44.06,13.67,11.37,10.24,17.38,24.68,17.38,41.74h-5.74c0-15.4-5.35-28.36-15.48-37.48-10.35-9.32-24.79-13.77-39.62-12.23-24.12,2.52-45.81,27.79-46.78,53.82,1.46.07,3.53.11,6.1.13l73.92-.94.1,5.74c-17.99.4-54.1,1.11-72.61.92l-14,.18c.47,2.47,1.42,4.7,2.81,6.57,0,.01,1.31,1.74,3.14,3.13,3.22,2.46,28.27,4.79,71.77,1.98l.37,5.73c-12.49.81-25.46,1.28-37.1,1.28Z"/>
        <rect class="cls-2" x="480.92" width="5.74" height="13.58"/>
      </g>
      <g>
        <rect class="cls-2" x="528.44" y="79.63" width="5.74" height="17.28"/>
        <rect class="cls-2" x="528.84" y="90.95" width="17.28" height="5.74"/>
        <path class="cls-2" d="M531.93,123.85c-17.24,0-31.26-14.03-31.26-31.26s14.03-31.26,31.26-31.26,31.26,14.03,31.26,31.26-14.03,31.26-31.26,31.26ZM531.93,67.06c-14.07,0-25.52,11.45-25.52,25.52s11.45,25.52,25.52,25.52,25.52-11.45,25.52-25.52-11.45-25.52-25.52-25.52Z"/>
      </g>
    </g>
    <path class="cls-2" d="M544.3,565.96c0-29.69,24.46-53.93,54.55-53.83,29.51.1,53.2,23.99,53.88,52.57.72,30.12-23.88,55.14-53.92,55.19-30.15.05-54.51-24.14-54.51-53.93ZM579.42,609.99c0-.38,0-.67,0-.96.02-3.47.24-6.91,1.07-10.31,1.97-8.04,3.99-16.06,6.03-24.08.11-.43.09-.79-.07-1.21-1.48-3.88-1.74-7.85-.66-11.86.73-2.7,2.07-5.07,4.55-6.58,4.03-2.45,9.84-1.06,10.43,5.3.18,1.96-.21,3.86-.67,5.76-.97,3.99-2.37,7.85-3.41,11.82-.81,3.09.18,6.03,2.78,7.88,2.54,1.81,5.34,1.9,8.21.93,3.44-1.17,5.78-3.64,7.5-6.69,3.75-6.63,4.88-13.84,4.05-21.3-.61-5.51-3.46-9.81-8.35-12.64-3.14-1.82-6.59-2.61-10.2-2.76-6.71-.28-12.73,1.47-17.73,6.08-4.36,4.02-6.7,9.08-7.24,14.92-.4,4.24.19,8.3,3.06,11.74.63.76.59,1.61.29,2.51-.42,1.28-.8,2.58-1.16,3.88-.25.88-.61,1.18-1.52,1.18-.51,0-.97-.19-1.42-.39-2.93-1.31-5.15-3.39-6.62-6.2-2.93-5.62-3.42-11.58-1.94-17.63,2.29-9.39,8.12-16.07,16.74-20.37,5.01-2.5,10.39-3.57,15.97-3.72,8.4-.22,16.01,1.94,22.43,7.5,5.19,4.5,8.45,10.15,9.19,16.99.79,7.37-.39,14.5-3.51,21.26-2.17,4.7-5.3,8.63-9.73,11.43-4.18,2.64-8.78,3.85-13.71,3.45-4.32-.35-7.97-2.14-10.59-5.78-.06.11-.12.19-.14.28-.6,2.41-1.18,4.82-1.81,7.22-.88,3.35-1.58,6.75-3.15,9.88-.73,1.45-1.51,2.87-2.29,4.3-.21.37-.21.52.26.65,5.37,1.43,10.82,2.09,16.37,1.6,9.74-.86,18.57-4.15,26.13-10.32,13.32-10.87,19.44-24.95,18.18-42.07-.53-7.22-2.82-13.93-6.54-20.16-9.74-16.33-28.05-25.47-47.06-23.39-9.57,1.05-18.2,4.54-25.47,10.8-14.95,12.88-20.13,29.21-15.91,48.25,3,13.51,11.14,23.56,23.1,30.57,1.42.83,2.88,1.6,4.52,2.24Z"/>
    <path class="cls-2" d="M99.46,276.53l-32.48-23.14-32.48,23.14-3.83-2.79,11.97-38.04-32.04-23.74,1.46-4.51,39.88-.37,12.68-37.81h4.74l12.68,37.81,39.88.37,1.46,4.51-32.04,23.74,11.97,38.04-3.83,2.79ZM65.53,248.29h2.9l27.86,19.84-10.27-32.62.9-2.76,27.48-20.36-34.2-.32-2.35-1.71-10.87-32.43-10.87,32.43-2.35,1.71-34.2.32,27.48,20.36.9,2.76-10.27,32.62,27.86-19.84Z"/>
    <path class="cls-2" d="M432.57,273.04h-3.01c-1.34-1.02-32.92-25.02-45.64-40.21-6.76-8.08-10.7-15.7-12.4-23.98-3.38-16.42,4.19-32,18.84-38.79,14.41-6.67,30.22-2.97,40.72,9.39,6.47-7.69,15.03-12,24.95-12.52,11.68-.6,22.27,4.22,29.04,13.26,7.1,9.47,8.83,22.27,4.64,34.23-3.59,10.25-10.19,18.04-16.17,24.31-11.71,12.28-39.77,33.41-40.96,34.3ZM404.79,171.81c-4.11,0-8.29.91-12.33,2.78-12.5,5.79-18.95,19.15-16.05,33.24,1.53,7.44,5.13,14.36,11.34,21.78,10.81,12.92,36.8,33.25,43.32,38.28,6.08-4.63,28.93-22.22,38.83-32.61,5.61-5.88,11.79-13.16,15.07-22.51,3.64-10.39,2.17-21.45-3.92-29.58-5.75-7.68-14.79-11.79-24.77-11.26-9.55.5-17.35,4.9-23.18,13.07l-3.94.17c-.39-.46-.6-.78-.77-1.04-.07-.11-.14-.22-.25-.36-6.12-7.79-14.57-11.95-23.35-11.95Z"/>
    <g>
      <path class="cls-2" d="M248.18,785.46c-29.37,0-53.26-23.89-53.26-53.26s23.89-53.26,53.26-53.26,53.26,23.89,53.26,53.26-23.89,53.26-53.26,53.26ZM248.18,683.95c-26.61,0-48.26,21.65-48.26,48.26s21.65,48.26,48.26,48.26,48.26-21.65,48.26-48.26-21.65-48.26-48.26-48.26ZM250.62,749.15h-5v-7.54c-4.53-1.2-7.88-5.33-7.88-10.24s3.35-9.04,7.88-10.24v-14.8h5v14.7c4.74,1.05,8.3,5.29,8.3,10.34s-3.56,9.29-8.3,10.34v7.44ZM248.33,725.78c-3.08,0-5.59,2.51-5.59,5.59s2.51,5.59,5.59,5.59,5.59-2.51,5.59-5.59-2.51-5.59-5.59-5.59Z"/>
      <rect class="cls-2" x="280.57" y="688.87" width="9" height="5" transform="translate(-420.12 442.45) rotate(-48.15)"/>
      <rect class="cls-2" x="286.21" y="679.14" width="5" height="16.46" transform="translate(-401.48 405.48) rotate(-45)"/>
    </g>
    <g>
      <g>
        <path class="cls-2" d="M246.7,395.54c-.75,0-1.47-.32-1.97-.88-.93-1.03-.78-2.27-.59-3.83.28-2.33.47-4.86-.8-5.38l-1.48-2.9c2.02-8.37,5.98-9.69,10.56-10.45.09-.02.17-.07.2-.14,3.68-9.42,13.42-11.02,19.18-9.14,5.28,1.55,11.59,5.79,11.8,17.22v.22c.01.11.02.24.02.37,2.27.35,4.34,1.63,5.77,3.59,1.64,2.26,2.22,5.05,1.57,7.67-.03.14-.04.26-.05.36-.24,2.79-2.37,3.09-3.29,3.09h-.02c-10.83-.04-36.93.15-40.87.21h-.03ZM247.19,382.05c2.41,2.26,2.28,6,2.02,8.46,7.49-.07,26.93-.2,36.97-.18.16-1.07-.14-2.24-.82-3.18-.7-.96-1.7-1.55-2.75-1.62-.55-.04-2.22-.15-3.26-1.47-1.02-1.28-.79-2.81-.71-3.31,0-.07,0-.17-.01-.28v-.36c-.14-6.85-2.83-10.94-8.25-12.52l-.08-.03c-3.06-1-10.26-.81-13.01,6.2-.66,1.7-2.21,2.95-4.03,3.25-2.95.49-4.71.79-6.06,5.03Z"/>
        <path class="cls-2" d="M308.81,450.42h-111.64l-2.41-3.17,15.26-54.88,2.41-1.83h80.31l2.4,1.8,16.06,54.88-2.4,3.2ZM200.47,445.42h105.01l-14.6-49.88h-76.54l-13.87,49.88Z"/>
        <path class="cls-2" d="M303.32,469.57h-98.79l-1.87-.84-17-19.14,1.87-4.16h130.91l1.96,4.05-15.13,19.14-1.96.95ZM205.66,464.57h96.45l11.17-14.14h-120.19l12.56,14.14Z"/>
        <path class="cls-2" d="M231.04,394.74c-4.11,0-7.45-3.34-7.45-7.45s3.34-7.45,7.45-7.45,7.45,3.34,7.45,7.45-3.34,7.45-7.45,7.45ZM231.04,384.83c-1.35,0-2.45,1.1-2.45,2.45s1.1,2.45,2.45,2.45,2.45-1.1,2.45-2.45-1.1-2.45-2.45-2.45Z"/>
        <path class="cls-2" d="M241.48,394.74c-4.11,0-7.45-3.34-7.45-7.45s3.34-7.45,7.45-7.45,7.45,3.34,7.45,7.45-3.34,7.45-7.45,7.45ZM241.48,384.83c-1.35,0-2.45,1.1-2.45,2.45s1.1,2.45,2.45,2.45,2.45-1.1,2.45-2.45-1.1-2.45-2.45-2.45Z"/>
        <path class="cls-2" d="M236.4,385.91c-4.11,0-7.45-3.34-7.45-7.45s3.34-7.45,7.45-7.45,7.45,3.34,7.45,7.45-3.34,7.45-7.45,7.45ZM236.4,376c-1.35,0-2.45,1.1-2.45,2.45s1.1,2.45,2.45,2.45,2.45-1.1,2.45-2.45-1.1-2.45-2.45-2.45Z"/>
      </g>
      <path class="cls-2" d="M271.59,414.13c-1.46,0-2.88-.46-4.07-1.35-1.8-1.34-2.85-3.49-2.89-5.88-.07-3.94-.05-7.89-.01-11.09-1.78.03-3.64.03-5.65,0,.02,1.25,0,2.52-.11,3.81-.35,3.78-3.43,6.4-7.33,6.22-3.65-.16-6.48-3.09-6.58-6.8-.03-.96-.06-2.09-.03-3.26-1.42,0-2.43,0-3.11,0-1.18,0-3.63-.02-3.65-2.5-.02-1.78.93-2.32,2.72-2.51h0s.03,0,.05,0c.71-.07,1.56-.09,2.53-.11,1.43-.03,2.86-.06,2.86-.06h31.54c.09,0,.87.03,1.64.06,1.58.07,3.98.17,3.93,2.65-.02,1.12-.6,2.45-3.2,2.47-.36,0-.88,0-1.58,0,.04,3.91.02,7.85,0,11.28-.02,3.23-2.08,5.96-5.13,6.8-.63.18-1.27.26-1.91.26ZM269.62,395.59c-.03,3.22-.06,7.23.01,11.22.01.84.33,1.55.88,1.96.32.24.87.49,1.65.27.91-.25,1.46-1.01,1.47-2.02.02-3.48.04-7.48,0-11.44h-4.01ZM249.91,395.59c-.04,1.12,0,2.27.02,3.3.03,1.08.79,1.9,1.81,1.95.95.04,2-.38,2.13-1.68.11-1.15.11-2.33.09-3.57h-4.05Z"/>
    </g>
    <g id="sdQHiS.tif">
      <g>
        <path class="cls-2" d="M572.51,251.53c-4.13,0-9.03-.32-11.76-1.64l-.35-.21c-3.4-2.4-5.05-6.38-4.79-11.52.17-5.65.1-11.5.02-17.16-.11-8.25-.22-16.78.43-25.14l.07-.43c1.53-5.94,7.78-8.62,13.21-8.21,10.84,0,21.68,0,32.53,0,18.83-.01,38.29-.02,57.42.03,5.75-.2,11.1,3.88,11.96,9.14l.03.33c.27,9.43.22,19.04.17,28.35-.03,5.32-.06,10.81-.03,16.19v.11c-.06,1.59-.45,2.69-1.38,3.91-1.05,1.47-4.7,5.99-9.87,5.99h-.06c-1.53.06-10.27.02-12.99,0l-2.48-2.5v-12.74c-.29-1.4-2.94-3.07-4.95-3.07h-51.92c-2.83,0-5.17,2.21-5.33,5.03l-.64,10.92-2.29,2.34c-.63.05-3.55.28-7,.28ZM563.1,245.47c2.6,1.12,9.11,1.19,13.83.94l.51-8.72c.32-5.46,4.86-9.74,10.33-9.74h51.92c4.27,0,9.42,3.25,9.93,7.59l.02.29v10.44c4.34.02,9.59.03,10.24,0h.22s.04,0,.06,0c2.25,0,4.53-2.1,5.82-3.92l.06-.08c.29-.38.34-.48.37-1.04-.03-5.39,0-10.88.03-16.19.05-9.2.1-18.71-.16-27.99-.54-2.7-3.67-4.93-6.85-4.8h-.11c-19.13-.05-38.61-.04-57.45-.03-10.88,0-21.76.01-32.63,0h-.2c-3.31-.27-7.07,1.11-8.02,4.27-.61,8.07-.5,16.39-.4,24.45.08,5.71.15,11.62-.02,17.43-.17,3.34.67,5.71,2.51,7.11ZM648.34,212.5h-.17c-2-.09-3.56-1.06-4.37-2.66-.84-1.66-.71-3.75.33-5.32,1-1.5,2.71-2.3,4.57-2.17h.13c2.74.37,4.64,2.62,4.52,5.36-.12,2.68-2.19,4.7-4.91,4.8h-.11ZM648.24,207.49s.02,0,.04,0c.09,0,.12-.02.12-.02-.03.02-.05-.1-.07-.13h0s-.02-.01-.07-.02c-.02,0-.04,0-.04,0,.02,0,.01.09.02.17Z"/>
        <path class="cls-2" d="M582.99,191.39c-1.02,0-2.98-.04-4.26-1.41l-.24-.3c-1.23-1.81-1.11-3.87-1.02-5.53.04-.64.07-1.24.02-1.69l-.02-.56c-.08-4.03-.18-9.53,4.05-12.9,2.06-1.75,5.14-2.79,8.25-2.81,5.98.02,11.95,0,17.93-.01,10.2-.03,20.75-.05,31.1.08l.53.05c11.05,1.61,10.59,12.04,10.28,18.94-.03.77-.07,1.54-.09,2.28l-.05.43c-.2.99-1.04,3.3-4.45,3.4-11.91.04-23.74.03-35.57.03-8.8,0-17.59,0-26.38,0h-.09ZM582.47,186.38c.15,0,.36.02.6.01,8.79-.01,17.59,0,26.39,0,11.7,0,23.39.01,35.11-.02.02-.44.04-.88.06-1.33.35-7.96.12-12.86-5.97-13.77h-.04c-10.28-.14-20.76-.11-30.9-.08-5.99.02-11.97.03-17.94.01-1.93,0-3.87.63-5.03,1.64l-.08.07c-2.32,1.82-2.25,5.42-2.19,8.91v.24c.08.82.04,1.62,0,2.39-.04.68-.08,1.42,0,1.95Z"/>
        <path class="cls-2" d="M588.13,274c-3.29,0-6.02-.99-7.91-2.89-1.37-1.38-2.96-3.92-2.73-8.21,0-3.7-.02-7.11-.04-10.18-.04-6.67-.07-11.93.12-15.39.14-2.51,1.26-4.8,3.14-6.46,1.95-1.72,4.58-2.62,7.24-2.46,5.31-.02,10.62-.02,15.93-.02,3.23,0,6.46,0,9.68,0h0c3.16,0,6.33,0,9.5,0,5.22,0,10.45,0,15.67.01,2.96-.2,5.79.8,7.82,2.75,1.91,1.83,2.91,4.32,2.83,7.02.07,6.32.06,12.74.04,18.95v5.34c.19,3.67-.78,6.7-2.83,8.76-1.38,1.39-3.94,2.98-8.28,2.76-16.43,0-32.87,0-49.32,0-.3.02-.59.02-.88.02ZM587.36,233.38c-1.24,0-2.44.44-3.34,1.23-.62.54-1.37,1.5-1.45,3-.19,3.3-.16,8.5-.12,15.07.02,3.1.04,6.54.04,10.28v.15c-.12,2,.31,3.5,1.27,4.47,1.32,1.32,3.47,1.49,5.04,1.41h.14c16.5,0,32.98,0,49.45,0h.14c2.04.12,3.57-.32,4.53-1.29,1.3-1.3,1.46-3.44,1.36-5.01v-.15s0-5.42,0-5.42c.01-6.21.03-12.63-.04-18.94v-.12c.06-1.64-.67-2.7-1.3-3.3-1.03-.99-2.51-1.48-4.09-1.37h-.2c-5.25,0-10.5,0-15.75,0-3.17,0-6.34,0-9.51,0-3.23,0-6.46,0-9.68,0-5.32,0-10.65,0-15.99.02h-.18c-.12-.01-.24-.02-.35-.02Z"/>
      </g>
    </g>
    <g>
      <g id="Hs920K.tif">
        <g>
          <path class="cls-2" d="M64.38,67.69c-3.18-1.55-6.4-3.05-9.57-4.61-7.94-3.92-15.9-7.83-23.48-12.43-2.34-1.42-4.77-2.78-6.57-4.91-3.47-4.1-5.29-8.84-5.34-14.23,0-.2-.06-.41-.09-.61l.14-2.29c.16-.85.32-1.69.49-2.54,1.89-9.19,9.79-16.93,19.03-18.67,1.61-.3,3.23-.35,4.85-.46l2.08.13c2.01.36,4.01.75,5.93,1.51,3.05,1.21,5.71,2.98,8.06,5.26,1.62,1.57,2.47,3.6,3.35,5.6,3.93,8.91,7.09,18.1,10.31,27.28,1.16,3.31,2.28,6.63,3.42,9.95.14.4-12.32,11.16-12.6,11.02ZM67.52,56.16c.1-.07.2-.13.29-.2-.96-1.85-1.91-3.69-2.87-5.53-5.12-9.76-10.17-19.54-15.9-28.96-1.25-2.05-2.54-4.08-4.51-5.54-3.77-2.78-7.83-3.82-12.33-1.98-1.2.49-1.2.56-.34,1.53,11.74,13.33,23.49,26.65,35.22,39.99.18.21.3.47.44.71ZM65.22,58.41c-.05-.45-.3-.61-.47-.81-11.78-13.38-23.57-26.75-35.35-40.13-.76-.86-.87-.86-1.45.16-2.57,4.5-1.93,8.87.68,13.1,1.61,2.6,4.11,4.31,6.47,6.14,9.07,7.02,18.51,13.52,27.94,20.05.7.48,1.41.96,2.19,1.49ZM23.33,25.69c-.79,2.6-1.04,5.34-.54,8.29.88,5.23,3.23,9.54,7.87,12.45,4.66,2.92,9.48,5.54,14.34,8.08,7.3,3.81,14.71,7.38,22.14,10.94.67.32,1.21.23,1.53-.34.34-.61-.4-.7-.71-.91-6.13-4.28-12.3-8.49-18.4-12.81-6.95-4.92-13.93-9.8-20.43-15.32-2.23-1.89-3.83-4.2-4.88-6.91-.43-1.1-.65-2.26-.91-3.48ZM40.73,10.38c5.05,1.51,8.34,5.01,10.98,9.38,4.75,7.86,9.05,15.96,13.34,24.07,2.8,5.28,5.5,10.61,8.26,15.91.15.28.15.89.71.66.51-.21.71-.64.45-1.2-.09-.19-.14-.39-.2-.59-1.56-4.53-3.09-9.07-4.68-13.59-2.91-8.29-5.84-16.58-9.36-24.63-.93-2.12-2.07-4.06-3.92-5.55-4.56-3.7-9.73-5.17-15.58-4.45Z"/>
          <path class="cls-2" d="M64.33,68.7c-.15,0-.26-.05-.38-.11-1.39-.68-2.79-1.35-4.19-2.01-1.8-.86-3.6-1.72-5.39-2.6l-.48-.24c-7.67-3.79-15.61-7.71-23.08-12.23l-.63-.38c-2.18-1.31-4.44-2.67-6.19-4.74-3.65-4.32-5.53-9.32-5.58-14.87,0-.08-.02-.16-.04-.24l-.05-.44.16-2.42.16-.84c.11-.57.22-1.14.33-1.71,1.98-9.62,10.13-17.62,19.82-19.46,1.34-.25,2.67-.33,3.97-.41l1.13-.06,2.19.15c1.98.35,4.09.76,6.12,1.56,3.08,1.22,5.91,3.06,8.39,5.47,1.69,1.65,2.59,3.69,3.46,5.67l.1.24c3.69,8.36,6.75,17.11,9.71,25.56l.63,1.79c.72,2.06,1.43,4.12,2.13,6.19.43,1.26.86,2.51,1.29,3.77.2.59.27.79-2.35,3.18.02.32-.04.58-.12.77-.18.46-.56.82-1.06,1.03-.38.15-.69.15-.93.08-.04.03-.08.07-.12.1-1.42,1.26-2.61,2.3-3.62,3.17.03.25,0,.56-.2.92-.43.79-1.19,1.14-2.06,1.01-2.06,1.71-2.75,2.1-3.15,2.1ZM20.33,30.84v.06c.05.2.08.4.08.6.05,5.07,1.76,9.64,5.1,13.59,1.54,1.82,3.55,3.03,5.69,4.32l.63.38c7.39,4.48,15.29,8.38,22.92,12.15l.48.24c1.78.88,3.57,1.73,5.36,2.59,1.24.59,2.48,1.18,3.71,1.78.26-.19.62-.48,1.05-.83-7.35-3.53-14.06-6.78-20.84-10.32-4.31-2.25-9.39-4.97-14.41-8.12-4.6-2.88-7.32-7.18-8.33-13.13-.5-2.97-.32-5.83.57-8.75l1.93.08.09.41c.22,1.04.43,2.02.78,2.92,1.01,2.59,2.55,4.78,4.59,6.51,6.11,5.18,12.76,9.89,19.2,14.44l1.17.83c3.76,2.66,7.61,5.32,11.33,7.9,2.29,1.58,4.58,3.17,6.86,4.76,1.28-1.1,2.66-2.31,3.91-3.41-.99-1.9-1.99-3.83-2.98-5.76-1.68-3.26-3.37-6.53-5.08-9.77-3.95-7.47-8.43-15.93-13.31-24.02-2.97-4.92-6.18-7.67-10.41-8.94l.16-1.95c6.09-.75,11.59.82,16.33,4.67,2.21,1.8,3.41,4.11,4.21,5.93,3.61,8.25,6.68,16.99,9.39,24.7,1.1,3.12,2.17,6.24,3.23,9.37l1.15,3.34c.41-.38.74-.7.95-.92-.37-1.09-.75-2.17-1.12-3.26-.7-2.06-1.41-4.12-2.12-6.17l-.63-1.79c-2.95-8.42-6-17.12-9.66-25.42l-.11-.24c-.83-1.89-1.62-3.67-3.03-5.05-2.32-2.26-4.85-3.91-7.73-5.05-1.84-.73-3.81-1.11-5.68-1.44l-1.96-.12-.94.06c-1.29.08-2.5.15-3.72.38-8.92,1.69-16.42,9.04-18.24,17.89-.11.56-.22,1.12-.33,1.68l-.15.79-.13,2.11ZM23.55,30.12c-.06,1.22.01,2.45.22,3.7.9,5.36,3.33,9.2,7.42,11.76,4.96,3.11,10,5.81,14.28,8.04,6.31,3.29,12.56,6.34,19.33,9.59-1.49-1.03-2.98-2.06-4.47-3.09-3.73-2.58-7.58-5.25-11.35-7.91l-1.17-.82c-6.47-4.58-13.17-9.31-19.34-14.55-2.14-1.82-3.79-4.08-4.92-6.72ZM45.14,11.26c2.81,1.73,5.23,4.34,7.42,7.98,4.91,8.14,9.41,16.62,13.37,24.12,1.72,3.25,3.41,6.52,5.09,9.79.31.61.62,1.21.94,1.81l-.09-.26c-1.07-3.12-2.13-6.24-3.23-9.35-2.7-7.68-5.75-16.38-9.34-24.56-1.05-2.39-2.17-3.99-3.63-5.18-3.21-2.6-6.69-4.04-10.54-4.34ZM64.66,59.24l-.67-.46c-.53-.36-1.03-.7-1.53-1.04l-1.3-.9c-8.85-6.13-18-12.47-26.68-19.18l-.89-.68c-2.12-1.62-4.32-3.29-5.82-5.72-3.02-4.89-3.25-9.64-.7-14.12.32-.57.69-1.21,1.43-1.29.73-.08,1.22.47,1.64.96,11.79,13.37,23.57,26.75,35.35,40.13.27.27.64.65.72,1.37l-1.56.93ZM28.74,18.25c-2.12,3.81-1.88,7.73.73,11.96,1.31,2.12,3.26,3.61,5.33,5.18l.9.69c7.8,6.04,16,11.78,24.03,17.34-10.33-11.73-20.66-23.45-30.99-35.17ZM68.08,56.99l-1.42-.3c-.05-.09-.1-.18-.15-.27-.07-.12-.13-.24-.19-.3-10.02-11.38-20.05-22.76-30.07-34.14l-5.15-5.85c-.53-.6-.99-1.12-.82-1.84.17-.72.83-.99,1.54-1.28,4.47-1.83,8.95-1.11,13.31,2.1,2.07,1.53,3.38,3.54,4.77,5.83,5.26,8.65,10.02,17.74,14.63,26.53l1.31,2.49c.67,1.28,1.33,2.56,2,3.84l.88,1.7-.33,1.29-.29.2ZM32.63,14.84l5.12,5.82c8.6,9.76,17.21,19.53,25.81,29.3l-.81-1.55c-4.59-8.76-9.34-17.83-14.56-26.42-1.28-2.1-2.48-3.95-4.25-5.26-3.79-2.8-7.49-3.42-11.3-1.88Z"/>
        </g>
      </g>
      <g>
        <path class="cls-2" d="M103.63,113.87l-3.53-.25-38.26-44.11.25-3.53,13.14-11.4,3.53.25,38.26,44.11-.25,3.53-13.14,11.4ZM67.26,68.12l34.98,40.33,9.36-8.12-34.99-40.33-9.36,8.12Z"/>
        <rect class="cls-2" x="92.83" y="93.42" width="14.91" height="5.41" transform="translate(-38.46 89.21) rotate(-40.93)"/>
      </g>
    </g>
    <g>
      <path class="cls-2" d="M795.68,219.31c-9.18,0-16.65-7.47-16.65-16.65s7.47-16.65,16.65-16.65,16.65,7.47,16.65,16.65-7.47,16.65-16.65,16.65ZM795.68,191c-6.42,0-11.65,5.23-11.65,11.65s5.23,11.65,11.65,11.65,11.65-5.23,11.65-11.65-5.23-11.65-11.65-11.65Z"/>
      <path class="cls-2" d="M795.68,273.71c-29.64,0-53.76-24.12-53.76-53.76s24.12-53.76,53.76-53.76,53.76,24.12,53.76,53.76-24.12,53.76-53.76,53.76ZM795.68,171.19c-26.89,0-48.76,21.88-48.76,48.76s21.88,48.76,48.76,48.76,48.76-21.88,48.76-48.76-21.88-48.76-48.76-48.76Z"/>
      <path class="cls-2" d="M831.41,255.94c-5.71-14.44-19.34-24.12-34.73-24.66-15.8-.53-30.65,8.91-36.97,23.54l-4.59-1.98c7.13-16.5,23.89-27.19,41.74-26.55,17.38.6,32.77,11.52,39.21,27.82l-4.65,1.84Z"/>
    </g>
    <g>
      <polygon class="cls-2" points="248.46 103.78 246.47 102.82 234.5 87.5 233.97 85.93 234.45 47.14 234.85 45.81 242.03 34.79 244.13 33.66 311.17 33.66 313.31 34.87 320.49 46.84 320.85 48.13 320.88 67.73 315.88 67.74 315.85 48.82 309.75 38.66 245.48 38.66 239.44 47.93 238.98 85.11 249.65 98.77 299.85 98.24 299.91 103.24 248.46 103.78"/>
      <rect class="cls-2" x="236.88" y="50.24" width="82" height="5"/>
      <rect class="cls-2" x="225.93" y="49.98" width="10.53" height="5"/>
      <g>
        <rect class="cls-2" x="315.5" y="79.4" width="5" height="13.41"/>
        <rect class="cls-2" x="316.08" y="87.92" width="13.41" height="5"/>
        <path class="cls-2" d="M318.48,113.98c-13.52,0-24.53-11-24.53-24.53s11-24.53,24.53-24.53,24.53,11,24.53,24.53-11,24.53-24.53,24.53ZM318.48,69.93c-10.77,0-19.53,8.76-19.53,19.53s8.76,19.53,19.53,19.53,19.53-8.76,19.53-19.53-8.76-19.53-19.53-19.53Z"/>
      </g>
      <polygon class="cls-2" points="266.27 29.95 262.2 27.04 266.99 20.34 269.03 19.29 285.31 19.29 287.34 20.34 292.13 27.04 288.06 29.95 284.02 24.29 270.31 24.29 266.27 29.95"/>
      <polygon class="cls-2" points="256.55 23.06 251.81 21.48 253.24 17.2 250.5 14.46 250.03 11.58 252.9 5.83 257.38 8.07 255.31 12.2 257.87 14.76 258.47 17.32 256.55 23.06"/>
      <polygon class="cls-2" points="240.27 23.06 235.53 21.48 236.96 17.2 234.22 14.46 233.75 11.58 236.62 5.83 241.1 8.07 239.03 12.2 241.58 14.76 242.19 17.32 240.27 23.06"/>
      <polygon class="cls-2" points="318.8 23.06 314.06 21.48 315.49 17.2 312.75 14.46 312.28 11.58 315.15 5.83 319.63 8.07 317.56 12.2 320.12 14.76 320.72 17.32 318.8 23.06"/>
      <polygon class="cls-2" points="302.52 23.06 297.78 21.48 299.21 17.2 296.47 14.46 296 11.58 298.87 5.83 303.35 8.07 301.28 12.2 303.83 14.76 304.44 17.32 302.52 23.06"/>
    </g>
    <g>
      <g>
        <path class="cls-2" d="M916.26,266.15l-4.36-1.67v-96.92l2.5-2.5h109.25l2.5,2.52-.59,67.8-2.5,2.48h-81.5l-25.3,28.29ZM916.89,170.07v87.88l21.69-24.24,1.86-.83h80.14l.54-62.8h-104.23Z"/>
        <polygon class="cls-2" points="1039.13 272.93 1018.61 255.03 943.19 254.78 940.7 252.25 940.85 235.83 945.85 235.87 945.72 249.78 1019.56 250.03 1021.19 250.65 1038.31 265.58 1038.81 188.68 1025.07 188.52 1025.13 183.52 1041.35 183.71 1043.82 186.22 1043.27 271.06 1039.13 272.93"/>
      </g>
      <path class="cls-2" d="M985.49,221.22h-30.47l-2.5-2.5v-5.6c-5.24-1.57-9.11-6.12-9.14-11.14-.02-3.16,1.49-6.28,4.16-8.58,2.3-1.98,5.2-3.09,8.22-3.21.5-3.08,1.99-5.95,4.27-8.14,2.84-2.73,6.62-4.16,10.39-3.91,6.51.42,11.8,5.59,12.83,12.04,1.41.05,2.79.32,4.08.81,4.02,1.53,8.33,5.62,8.28,10.99-.02,2.9-1.35,5-1.91,5.89-1.65,2.6-3.9,4.1-5.71,4.94v5.91l-2.5,2.5ZM957.51,216.22h25.47v-5.12l1.75-2.38c1.17-.37,3.33-1.31,4.73-3.52.39-.62,1.12-1.78,1.14-3.25.02-2.82-2.59-5.34-5.06-6.28-1.29-.49-2.75-.62-4.22-.38l-2.91-2.54c.15-5-3.58-9.31-8.33-9.62-2.37-.17-4.77.77-6.6,2.53-1.93,1.85-3,4.44-2.93,7.1l-2.89,2.53c-2.5-.4-5.01.3-6.88,1.9-1.53,1.31-2.43,3.09-2.42,4.75.02,2.78,2.69,6.13,6.96,6.68l2.18,2.48v5.12Z"/>
    </g>
    <g id="_2Txkvi.tif" data-name="2Txkvi.tif">
      <path class="cls-2" d="M296.62,273.82h-.03c-13.29-.02-26.58-.01-39.87-.01h-15.56s-12.08,0-12.08,0c-9.67,0-19.33,0-28.99,0h-.01c-6.9,0-12.19-2.95-15.72-8.77-.95-1.56-1.42-3.23-1.84-4.7-.1-.35-.2-.69-.3-1.04l-.11-.72v-60.76l.21-1c.04-.09.08-.18.12-.26,1.82-8.28,8.71-13.84,17.21-13.84h3.17c5.12,0,10.24,0,15.37.01,1.33-2.75,2.45-4.99,3.54-7.03,2.18-4.09,5.58-6.91,10.13-8.39.43-.14.83-.21,1.16-.27.18-.03.42-.07.5-.11l1.27-.35h28.24l1.19.3s.05.03.08.04c5.86,1.25,10.09,4.76,12.57,10.43.9,2.06,1.62,3.79,2.24,5.38h2.56c5.7-.04,11.6-.07,17.41,0,6.7.09,12,3.39,15.32,9.53.59,1.09.91,2.21,1.19,3.2.15.53.29,1.02.46,1.47l.16.88v60.76l-.1.7c-.72,2.49-1.76,5.36-3.91,7.75-4.07,4.51-9.31,6.79-15.56,6.79ZM272.28,268.81c8.11,0,16.21,0,24.32.01h.03c4.85,0,8.72-1.68,11.85-5.14,1.39-1.54,2.14-3.52,2.72-5.45v-59.96c-.16-.49-.3-.96-.43-1.42-.23-.81-.45-1.57-.78-2.18-2.48-4.59-6.08-6.85-10.99-6.91-5.76-.08-11.64-.05-17.31-.02l-3.18.02h-.03c-2.33,0-3.35-1.4-3.8-2.57-.64-1.69-1.4-3.54-2.4-5.81-1.86-4.25-4.91-6.74-9.31-7.6-.22-.04-.42-.11-.59-.18h-27.03c-.54.21-1.05.31-1.46.38-.16.03-.33.05-.48.1-3.32,1.08-5.69,3.04-7.26,5.99-1.12,2.1-2.29,4.43-3.67,7.33-.75,1.57-2.03,2.42-3.8,2.36-5.28-.03-10.57-.02-15.84-.02h-3.17c-6.23,0-11.08,3.95-12.36,10.06-.05.23-.12.43-.19.6v59.84c.07.25.15.51.22.76.36,1.28.7,2.49,1.3,3.47,2.6,4.28,6.34,6.36,11.45,6.36h0c9.67,0,19.33,0,28.99,0h12.08s15.56,0,15.56,0c5.18,0,10.37,0,15.55,0ZM263.93,166.86s.01,0,.02,0c0,0-.01,0-.02,0ZM249.29,254.91c-.08,0-.16,0-.24,0-16.19-.13-29.3-13.32-29.24-29.41.06-16.16,13.21-29.29,29.31-29.29h.05c16.14.03,29.3,13.19,29.32,29.33,0,7.88-3.08,15.29-8.69,20.86-5.52,5.49-12.8,8.5-20.51,8.5ZM249.13,201.21c-13.36,0-24.26,10.89-24.31,24.3-.05,13.34,10.84,24.28,24.28,24.39.07,0,.13,0,.2,0,6.38,0,12.41-2.5,16.99-7.05,4.66-4.63,7.22-10.78,7.21-17.31-.02-13.39-10.93-24.31-24.33-24.33h-.04ZM292.2,214.56c-.08,0-.15,0-.23,0-2.13-.06-4.09-.94-5.52-2.47-1.42-1.52-2.17-3.51-2.09-5.61h0c.15-4.23,3.63-7.61,7.78-7.61.06,0,.11,0,.17,0,2.06.04,4.09.95,5.55,2.49,1.46,1.54,2.24,3.51,2.18,5.54-.06,2.09-.93,4.04-2.47,5.5-1.48,1.4-3.38,2.16-5.38,2.16ZM289.36,206.66c-.03.76.24,1.47.74,2.01.52.55,1.23.87,2.02.89.77.01,1.47-.26,2.03-.79.56-.53.88-1.24.91-2,.02-.69-.28-1.4-.81-1.96-.55-.58-1.3-.93-2.04-.94h-.06c-1.46,0-2.73,1.26-2.79,2.79h0Z"/>
    </g>
    <g>
      <path class="cls-2" d="M935.66,53.99h-1.52c-.45-.14-11.02-3.63-11.02-14.19,0-9.96,9.83-17.68,10.25-18h3.06c.42.32,10.25,8.04,10.25,18,0,10.55-10.57,14.04-11.02,14.19ZM934.9,27.11c-2.4,2.29-6.78,7.23-6.78,12.69s4.85,8.29,6.78,9.13c1.92-.83,6.78-3.5,6.78-9.13s-4.38-10.4-6.78-12.69Z"/>
      <path class="cls-2" d="M944,69.42c-5.25,0-9.43-2.89-9.68-3.07l-.92-1.21c-.16-.45-3.73-10.98,4.69-17.34,7.95-6,20.03-2.8,20.54-2.66l1.84,2.44c0,.53-.25,13.02-8.2,19.02h0c-2.79,2.11-5.67,2.82-8.28,2.82ZM937.91,62.7c1.83,1.03,6.88,3.3,11.36-.09h0c4.1-3.09,5.63-9.31,6.07-13.05-3.27-.54-9.86-1.07-14.23,2.23-4.48,3.38-3.69,8.88-3.2,10.91Z"/>
      <path class="cls-2" d="M925.2,69.42c-2.61,0-5.48-.71-8.28-2.82h0c-7.95-6-8.19-18.49-8.2-19.02l1.84-2.44c.51-.14,12.59-3.34,20.54,2.66,8.43,6.36,4.85,16.89,4.69,17.34l-.92,1.21c-.26.18-4.43,3.07-9.68,3.07ZM919.93,62.61c4.49,3.39,9.54,1.12,11.37.09.49-2.04,1.29-7.52-3.21-10.91-4.36-3.29-10.93-2.77-14.21-2.23.39,3.3,1.69,9.76,6.05,13.05h0Z"/>
      <path class="cls-2" d="M944.7,89.73c-5.26,0-9.43-2.89-9.68-3.07l-.92-1.21c-.16-.45-3.73-10.98,4.69-17.34,7.95-6,20.03-2.8,20.54-2.66l1.84,2.44c0,.53-.25,13.02-8.2,19.02h0c-2.79,2.11-5.67,2.82-8.28,2.82ZM938.6,83.01c1.82,1.03,6.87,3.3,11.37-.09h0c4.36-3.29,5.67-9.75,6.05-13.05-3.28-.54-9.85-1.06-14.21,2.23-4.49,3.39-3.7,8.86-3.21,10.91Z"/>
      <path class="cls-2" d="M925.89,89.73c-2.61,0-5.48-.71-8.28-2.82h0c-7.95-6-8.19-18.49-8.2-19.02l1.84-2.44c.51-.14,12.59-3.34,20.54,2.66,8.43,6.36,4.85,16.89,4.69,17.34l-.92,1.21c-.26.18-4.43,3.07-9.68,3.07ZM920.63,82.92c4.49,3.38,9.53,1.12,11.37.08.49-2.04,1.29-7.52-3.21-10.91-4.36-3.29-10.93-2.77-14.21-2.23.39,3.3,1.69,9.76,6.05,13.05h0Z"/>
      <rect class="cls-2" x="932.66" y="50.94" width="5" height="47.05" transform="translate(-.27 3.42) rotate(-.21)"/>
      <g>
        <ellipse class="cls-2" cx="935.07" cy="69.15" rx="4.2" ry="3.85"/>
        <path class="cls-2" d="M935.07,75.5c-3.7,0-6.7-2.85-6.7-6.35s3.01-6.35,6.7-6.35,6.7,2.85,6.7,6.35-3.01,6.35-6.7,6.35ZM935.07,67.8c-.92,0-1.7.62-1.7,1.35s.78,1.35,1.7,1.35,1.7-.62,1.7-1.35-.78-1.35-1.7-1.35Z"/>
      </g>
      <g>
        <ellipse class="cls-1" cx="929.47" cy="67.75" rx="1.4" ry="1.05"/>
        <path class="cls-2" d="M929.47,71.3c-2.19,0-3.9-1.56-3.9-3.55s1.71-3.55,3.9-3.55,3.9,1.56,3.9,3.55-1.71,3.55-3.9,3.55ZM929.47,66.3c-.51,0-1.1.63-1.1,1.45s.59,1.45,1.1,1.45,1.1-.63,1.1-1.45-.59-1.45-1.1-1.45Z"/>
      </g>
      <g>
        <ellipse class="cls-1" cx="940.68" cy="67.75" rx="1.4" ry="1.05"/>
        <path class="cls-2" d="M940.68,71.3c-2.19,0-3.9-1.56-3.9-3.55s1.71-3.55,3.9-3.55,3.9,1.56,3.9,3.55-1.71,3.55-3.9,3.55ZM940.68,66.3c-.51,0-1.1.63-1.1,1.45s.59,1.45,1.1,1.45,1.1-.63,1.1-1.45-.59-1.45-1.1-1.45Z"/>
      </g>
      <g>
        <ellipse class="cls-1" cx="934.02" cy="52.69" rx="1.05" ry="1.4"/>
        <path class="cls-2" d="M934.02,56.59c-1.99,0-3.55-1.71-3.55-3.9s1.56-3.9,3.55-3.9,3.55,1.71,3.55,3.9-1.56,3.9-3.55,3.9ZM934.02,51.59c-.82,0-1.45.59-1.45,1.1s.63,1.1,1.45,1.1,1.45-.59,1.45-1.1-.63-1.1-1.45-1.1Z"/>
      </g>
      <path class="cls-2" d="M934.85,113.36c-29.47,0-53.45-23.98-53.45-53.45s23.98-53.45,53.45-53.45,53.45,23.98,53.45,53.45-23.98,53.45-53.45,53.45ZM934.85,11.46c-26.72,0-48.45,21.74-48.45,48.45s21.74,48.45,48.45,48.45,48.45-21.74,48.45-48.45-21.74-48.45-48.45-48.45Z"/>
      <rect class="cls-2" x="908.2" y="20.29" width="5" height="32.67" transform="translate(316.71 727.92) rotate(-51.63)"/>
      <rect class="cls-2" x="965.83" y="68.32" width="5" height="27.34" transform="translate(299.39 786.9) rotate(-51.34)"/>
    </g>
    <g id="XSgTsn.tif">
      <path class="cls-2" d="M326.87,619.24c-9.02,0-18.53-.18-28.77-.54-9.45-.33-17.98-.72-26.57-2.1-8.63-1.38-15.25-7.53-17.27-16.03-1.53-6.44-2-12.92-2.42-20.12-.55-9.44-.55-19.1,0-28.74.33-5.79.79-12.51,2.15-19.03,1.96-9.42,7.96-15.36,17.36-17.2,4.28-.84,8.54-1.15,12.89-1.42,9.64-.6,19.87-.95,30.41-1.05.24,0,.48,0,.71,0,.76,0,1.41.01,1.93-.13l.67-.09,17.22.02c.18.02.36.05.54.08.26.04.51.08.68.09,2.09.05,4.19.1,6.28.14,3.77.08,7.67.16,11.51.3l1.83.06c8.32.29,16.92.58,25.35,2.11,8.71,1.57,14.54,6.87,16.85,15.33,1.49,5.44,1.93,11,2.36,16.39l.12,1.45c.1,1.27.14,2.52.17,3.74.05,1.91.1,3.72.4,5.47l.04.42v14.47l-.1.71c-.16.54-.17,1.21-.19,1.98,0,.22,0,.45-.02.67-.21,6.21-.65,14.4-2.17,22.65-1.54,8.38-6.18,14.05-13.79,16.86-3.08,1.14-6.22,1.43-9.26,1.72l-.23.02c-11.42,1.07-22.76,1.34-33.74,1.6-4.84.12-9.81.17-14.94.17ZM314.85,518.02c-.06,0-.11,0-.17,0-10.6.09-20.46.43-30.14,1.04-4.18.26-8.26.56-12.24,1.34-7.37,1.44-11.88,5.92-13.42,13.32-1.29,6.19-1.72,12.43-2.05,18.3-.54,9.44-.54,18.92,0,28.16.42,7.21.86,13.2,2.29,19.25,1.57,6.59,6.5,11.17,13.2,12.25,8.31,1.33,16.67,1.71,25.95,2.04,15.96.56,30.16.68,43.41.36,10.89-.26,22.14-.53,33.39-1.58l.23-.02c2.84-.27,5.53-.52,7.99-1.43,5.92-2.18,9.39-6.46,10.6-13.07,1.46-7.93,1.88-15.88,2.09-21.92v-.6c.03-.88.05-1.86.3-2.91v-13.94c-.32-2.03-.38-4.02-.43-5.95-.03-1.2-.06-2.34-.16-3.47l-.12-1.46c-.43-5.39-.83-10.48-2.19-15.46-1.82-6.65-6.04-10.49-12.91-11.73-8.08-1.46-16.5-1.75-24.64-2.03l-1.84-.06c-3.81-.13-7.69-.22-11.44-.3-2.1-.04-4.2-.09-6.3-.14-.51-.01-.96-.09-1.36-.15-.08-.01-.16-.03-.24-.04h-16.4c-1.07.24-2.07.24-2.96.23-.15,0-.3,0-.45,0ZM313.19,589.86l-3.75-2.17v-43.24l3.75-2.17,37.58,21.62v4.33s-37.58,21.62-37.58,21.62ZM314.44,548.77v34.59l30.06-17.3-30.06-17.29Z"/>
    </g>
    <g>
      <path class="cls-2" d="M471.03,469.57c-30.82,0-56.99-24.8-58.91-56.41l2.5-2.65h112.64l2.5,2.65c-1.79,30.31-26.48,55.06-56.22,56.36-.84.04-1.67.05-2.5.05ZM417.34,415.51c3.01,27.7,26.36,49.06,53.69,49.06.76,0,1.52-.02,2.29-.05,26.34-1.15,48.37-22.45,51.23-49.01h-107.21Z"/>
      <path class="cls-2" d="M423.02,414.66c-1.59-1.81-4.28-5.67-4.48-11.25-.16-4.44,1.38-7.95,2.73-10.14-3.01-3.25-4.8-7.51-4.97-12-.2-5.13,1.7-10.06,5.22-13.51,3.55-3.48,8.54-5.28,13.72-4.95,4.54.29,8.8,2.22,11.98,5.38,6.77-3.72,15.27-2.75,20.98,2.62,5.47,5.16,3.88,16.1,3.07,20.1,1.66,1.88,3.82,5.03,4.7,9.35,1.35,6.69-1.19,12.08-2.34,14.09l-4.33-2.49c.87-1.52,2.79-5.59,1.77-10.6-.8-3.93-3.02-6.57-4.27-7.79l-.68-2.39c.8-3.23,2.26-13.21-1.34-16.61-4.51-4.26-11.47-4.67-16.53-1l-3.43-.48c-2.39-3.04-5.99-4.92-9.88-5.18-3.75-.24-7.36,1.04-9.89,3.53-2.52,2.47-3.87,6.02-3.73,9.74.15,3.87,1.93,7.5,4.87,9.96l.33,3.5c-.94,1.14-3.1,4.29-2.95,8.7.15,4.17,2.31,7.07,3.24,8.12l-3.76,3.3Z"/>
      <rect class="cls-2" x="447.95" y="371.54" width="5" height="48.99" transform="translate(-147.22 446.36) rotate(-46.13)"/>
      <path class="cls-2" d="M496.41,381.56c-.92-6.34-5.5-11.46-11.68-13.02-6.04-1.53-12.43.68-16.27,5.62l-3.95-3.07c5.06-6.52,13.48-9.42,21.45-7.41,8.15,2.07,14.2,8.8,15.41,17.16l-4.95.71Z"/>
      <polygon class="cls-2" points="505.04 414.93 501.65 411.26 514.5 399.36 513.53 394.63 504.95 384.87 499.83 383.92 474.02 413.37 470.26 410.07 497.01 379.55 499.34 378.74 506.72 380.12 508.14 380.92 517.72 391.83 518.29 392.98 519.68 399.73 518.93 402.07 505.04 414.93"/>
      <path class="cls-2" d="M512.89,389.55l-4.01-2.98c1.84-2.47,3.1-5.37,3.66-8.39.53-2.86.42-5.87-.3-8.7l4.84-1.25c.91,3.53,1.04,7.28.38,10.85-.7,3.77-2.27,7.39-4.57,10.47Z"/>
      <path class="cls-2" d="M512.52,389.96l-3.26-3.79c2.67-2.29,5.86-3.96,9.24-4.81,5.18-1.32,9.67-.52,12.51.38l-1.51,4.77c-2.23-.71-5.73-1.33-9.78-.3-2.64.67-5.13,1.97-7.21,3.76Z"/>
    </g>
    <g>
      <path class="cls-2" d="M922.01,469.57c-12.36,0-22.5-3.21-27.87-6.21l-1.19-2.83,3.87-14.41,3.59-1.56c3.45,1.85,11.75,4.97,20.97,4.97s19.34-4.99,19.34-15.94-8.8-16.55-26.16-16.55c-5.22,0-9.35.28-13.41.9l-2.86-2.8,6.66-50.81,2.48-2.17h52.05l2.5,2.5v15.8l-2.5,2.5h-36.57l-2.17,14.82c1.37-.1,2.74-.14,4.34-.14,9.9,0,19.09,2.46,25.85,6.92,9.2,5.82,14.29,15.65,14.29,27.65,0,21.65-18.19,37.36-43.24,37.36ZM898.3,459.87c5.12,2.4,13.54,4.69,23.71,4.69,22.16,0,38.24-13.61,38.24-32.36,0-10.22-4.26-18.55-12-23.45-6-3.96-14.2-6.12-23.14-6.12-2.64,0-4.53.12-6.95.44l-2.8-2.84,2.94-20.14,2.47-2.14h36.23v-10.8h-47.36l-5.95,45.41c3.3-.36,6.78-.53,10.88-.53,11.64,0,31.16,2.8,31.16,21.55,0,13.75-12.25,20.94-24.34,20.94-7.92,0-15.44-2.06-20.52-4.22l-2.57,9.56Z"/>
      <path class="cls-2" d="M883.55,421.93h-29.05l-2.5-2.5v-9.68l2.5-2.5h29.05l2.5,2.5v9.68l-2.5,2.5ZM857,416.93h24.05v-4.68h-24.05v4.68Z"/>
    </g>
    <g>
      <path class="cls-2" d="M1203.36,469.57h-153.09l-.87-.16c-2.57-.95-6.23-2.91-9.14-6.85-3.66-4.98-3.96-10.24-3.81-12.93l2.51-2.36,176.38,1.33,2.48,2.35c.15,2.49-.13,6.25-2.33,10.05-3.45,5.98-9.23,7.94-11.56,8.5l-.59.07ZM1050.74,464.57h152.3c1.59-.43,5.73-1.91,8.13-6.07.99-1.72,1.44-3.44,1.61-4.92l-171.27-1.29c.21,2.08.9,4.75,2.79,7.32,2.1,2.86,4.8,4.3,6.44,4.97Z"/>
      <path class="cls-2" d="M1181.07,453.26h-53.91l-2.31-1.55c-3.5-8.52-6.02-17.44-7.48-26.51-1.77-11-2-22.2-.68-33.31l2.48-2.21h69.89l2.5,2.35c.65,10.6.19,21.3-1.35,31.8-1.39,9.41-3.66,18.74-6.77,27.74l-2.36,1.68ZM1128.84,448.26h50.43c2.71-8.19,4.72-16.64,5.98-25.15,1.38-9.38,1.86-18.93,1.43-28.42h-65.28c-.99,9.92-.69,19.9.89,29.72,1.31,8.15,3.51,16.16,6.54,23.86Z"/>
      <path class="cls-2" d="M1191.52,430.64c-.17,0-.34,0-.51,0h-6.16l.4-2.85c.55-3.91.99-7.89,1.32-11.84.34-4.15.56-8.36.66-12.5l.05-2.44h3.78c4.35-.11,8.64,1.65,11.7,4.86,2.92,3.07,4.42,7.14,4.11,11.15-.6,7.62-7.42,13.63-15.33,13.63ZM1190.58,425.63h.56c5.52.15,10.33-3.84,10.73-9.01.2-2.6-.8-5.26-2.75-7.31-1.84-1.93-4.34-3.1-6.98-3.28-.12,3.44-.32,6.9-.6,10.33-.25,3.09-.58,6.19-.97,9.28Z"/>
      <path class="cls-2" d="M1193.81,439.29c-.27,0-.54,0-.8-.01-2.76,0-5.88-.07-8.07-.79l-1.97-.66.29-2.06c.25-1.78.52-3.6.8-5.44.71-4.65,1.43-9.46,1.84-14.39l.11-1.29c.55-6.69,1.08-13,1.22-19.2l.06-2.44h2.44c.4,0,1.06.04,1.72.08.54.03,1.08.07,1.42.07,6.79-.2,13.5,2.57,18.25,7.57,4.54,4.77,6.86,11.06,6.38,17.26-.93,11.91-11.46,21.3-23.67,21.3ZM1188.54,434.12c1.59.16,3.44.16,4.51.16h.09c9.95.35,18.61-7.13,19.36-16.68.38-4.79-1.45-9.68-5.01-13.43-3.78-3.97-9.08-6.17-14.56-6.01-.23.01-.49,0-.78-.02-.21,5.5-.67,11.08-1.15,16.93l-.11,1.29c-.42,5.1-1.16,9.99-1.88,14.72-.16,1.02-.31,2.04-.46,3.04Z"/>
      <rect class="cls-2" x="1168.03" y="416.31" width="18.74" height="5" transform="translate(635.41 1544.83) rotate(-83.88)"/>
      <rect class="cls-2" x="1170.16" y="434.95" width="7.17" height="5" transform="translate(331.6 1364.72) rotate(-68.19)"/>
      <polygon class="cls-2" points="1048.3 451.94 1044.93 448.24 1125.47 375.03 1129.65 376.88 1129.65 390.85 1124.65 390.85 1124.65 382.53 1048.3 451.94"/>
      <polygon class="cls-2" points="1142.52 384.57 1137.76 383.06 1139.73 376.85 1135.91 372.84 1135.46 370.03 1139.1 362.41 1143.61 364.56 1140.71 370.63 1144.37 374.47 1144.95 376.95 1142.52 384.57"/>
      <polygon class="cls-2" points="1158.65 384.2 1153.71 383.43 1154.78 376.56 1152.73 372.17 1152.56 370.54 1154.34 362.92 1159.21 364.06 1157.63 370.84 1159.64 375.13 1159.84 376.58 1158.65 384.2"/>
      <polygon class="cls-2" points="1174.63 384.2 1169.69 383.43 1170.76 376.56 1168.7 372.17 1168.53 370.54 1170.32 362.92 1175.19 364.06 1173.6 370.84 1175.61 375.13 1175.82 376.58 1174.63 384.2"/>
      <g>
        <circle class="cls-2" cx="1108.11" cy="438.85" r="2.14"/>
        <path class="cls-2" d="M1108.11,443.49c-2.56,0-4.64-2.08-4.64-4.64s2.08-4.64,4.64-4.64,4.64,2.08,4.64,4.64-2.08,4.64-4.64,4.64ZM1108.11,438.49c-.2,0-.36.16-.36.36s.16.36.36.36.36-.16.36-.36-.16-.36-.36-.36Z"/>
      </g>
      <g>
        <circle class="cls-2" cx="1104.78" cy="426.2" r="2.14"/>
        <path class="cls-2" d="M1104.78,430.84c-2.56,0-4.64-2.08-4.64-4.64s2.08-4.64,4.64-4.64,4.64,2.08,4.64,4.64-2.08,4.64-4.64,4.64ZM1104.78,425.84c-.2,0-.36.16-.36.36s.16.36.36.36.36-.16.36-.36-.16-.36-.36-.36Z"/>
      </g>
      <g>
        <circle class="cls-2" cx="1095.46" cy="438.85" r="2.14"/>
        <path class="cls-2" d="M1095.46,443.49c-2.56,0-4.64-2.08-4.64-4.64s2.08-4.64,4.64-4.64,4.64,2.08,4.64,4.64-2.08,4.64-4.64,4.64ZM1095.46,438.49c-.2,0-.36.16-.36.36s.16.36.36.36.36-.16.36-.36-.16-.36-.36-.36Z"/>
      </g>
      <path class="cls-2" d="M1043.3,451.39c-3.12-4.11-3.41-9.62-.72-13.4,1.64-2.3,4.33-3.84,7.39-4.23,3.41-.43,6.9.62,9.58,2.89l-3.23,3.82c-1.62-1.37-3.71-2-5.73-1.75-1.67.21-3.11,1-3.94,2.17-1.42,1.99-1.15,5.13.63,7.48l-3.98,3.02Z"/>
      <path class="cls-2" d="M1060.42,440.78l-1.69-2.12c-5.86-7.36-6.68-17.34-1.98-24.27,2.83-4.18,7.62-7.05,13.13-7.87,6.23-.93,12.67.86,17.7,4.91l2.24,1.8-29.4,27.55ZM1073.14,411.28c-.84,0-1.68.06-2.52.19-4.13.62-7.68,2.71-9.73,5.73-2.98,4.4-2.81,10.82.22,16.08l20.92-19.61c-2.73-1.57-5.8-2.39-8.89-2.39Z"/>
      <polygon class="cls-2" points="1075.07 427.97 1061.26 427.97 1061.26 422.97 1070.07 422.97 1070.07 415.48 1075.07 415.48 1075.07 427.97"/>
      <path class="cls-2" d="M1085.56,413.08c-2.82-7.04-3.83-12.77.4-17.84,3.25-3.9,8.44-4.37,11.17-4.32.5-.77,1.2-1.62,2.04-2.16.79-.51,1.69-.78,2.51-.93.6-2.52,2.3-6.42,7.15-8.58,7.88-3.5,14-.03,14.26.12l-2.52,4.32c-.15-.08-4.24-2.3-9.71.12-4.37,1.94-4.5,6.21-4.51,6.39l-.05,2.62-2.62-.15c-.58-.04-1.5.08-1.8.27-.25.18-.79.97-1.09,1.62l-.79,1.68-1.84-.26s-5.71-.74-8.37,2.45c-2.35,2.82-2.25,6.17.4,12.78l-4.64,1.86Z"/>
    </g>
    <g>
      <path class="cls-2" d="M694.16,436.6l-22.54-15.91-.74-3.26,29.83-53.7,3.67-.79,35.8,26.52.28,3.78-43.09,43.09-3.21.27ZM676.34,417.9l18.99,13.4,39.55-39.55-31.18-23.1-27.36,49.25Z"/>
      <polygon class="cls-2" points="717.55 451.21 714.17 450.66 698.93 430.77 702.89 427.73 716.71 445.75 746.93 425.42 727.5 402.35 731.33 399.13 752.54 424.33 752.03 428.01 717.55 451.21"/>
      <polygon class="cls-2" points="735.06 469.57 731.23 468.95 718.63 447.07 722.97 444.58 734.02 463.78 743.01 455.74 735.06 436.16 739.69 434.28 748.31 455.49 747.66 458.3 735.06 469.57"/>
      <polygon class="cls-2" points="675.22 415.16 651.78 406.3 650.27 403.22 662.55 363.52 665.92 361.96 696.17 375 694.19 379.6 666.5 367.65 655.75 402.45 676.99 410.48 675.22 415.16"/>
      <path class="cls-2" d="M653.93,400.99l-24.58-5.75-1.7-3.49,7.16-15.31,2.5-1.43,22.8,2.13,2.17,3.17-5.38,18.93-2.97,1.75ZM633.48,391.08l19.26,4.5,3.9-13.74-18.05-1.69-5.11,10.93Z"/>
    </g>
    <g>
      <path class="cls-2" d="M716.49,56.11c-13.79,0-25.01-11.22-25.01-25.01s11.22-25.01,25.01-25.01,25.01,11.22,25.01,25.01-11.22,25.01-25.01,25.01ZM716.49,11.09c-11.03,0-20.01,8.98-20.01,20.01s8.98,20.01,20.01,20.01,20.01-8.98,20.01-20.01-8.98-20.01-20.01-20.01Z"/>
      <path class="cls-2" d="M764.02,65.13c-10.15,0-18.4-8.25-18.4-18.4s8.25-18.4,18.4-18.4,18.4,8.25,18.4,18.4-8.25,18.4-18.4,18.4ZM764.02,33.33c-7.39,0-13.4,6.01-13.4,13.4s6.01,13.4,13.4,13.4,13.4-6.01,13.4-13.4-6.01-13.4-13.4-13.4Z"/>
      <path class="cls-2" d="M757.62,113.73c-.16-11.67-4.98-22.45-13.59-30.35-8.08-7.42-18.62-11.24-28.97-10.5-19.9,1.43-36.02,18.92-36.68,39.81l-5-.16c.75-23.42,18.9-43.03,41.32-44.64,11.7-.85,23.62,3.46,32.71,11.8,9.49,8.71,15.03,21.1,15.21,33.97l-5,.07Z"/>
      <path class="cls-2" d="M797.55,112.62l-4.99-.26c.14-2.74.3-16.84-10.64-25.85-3.25-2.67-11.87-8.62-21.89-6.24-3.09.74-6,2.19-8.63,4.32l-3.14-3.89c3.22-2.6,6.79-4.39,10.62-5.3,12.2-2.91,22.41,4.09,26.23,7.24,12.8,10.54,12.62,26.82,12.46,29.98Z"/>
      <path class="cls-2" d="M668.66,65.12c-10.15,0-18.4-8.25-18.4-18.4s8.25-18.4,18.4-18.4,18.4,8.25,18.4,18.4-8.25,18.4-18.4,18.4ZM668.66,33.32c-7.39,0-13.4,6.01-13.4,13.4s6.01,13.4,13.4,13.4,13.4-6.01,13.4-13.4-6.01-13.4-13.4-13.4Z"/>
      <path class="cls-2" d="M638.56,112.6c-.16-3.16-.34-19.43,12.46-29.97,3.82-3.15,14.02-10.16,26.23-7.24,3.83.91,7.4,2.7,10.62,5.3l-3.14,3.89c-2.63-2.13-5.54-3.59-8.63-4.32-10.03-2.39-18.65,3.56-21.89,6.23-10.94,9.01-10.79,23.12-10.64,25.85l-4.99.26Z"/>
    </g>
    <g>
      <polygon class="cls-2" points=".05 390.56 0 385.56 33.94 384.92 36.83 374.3 37.48 373.19 38.9 371.81 51.32 362.78 53.41 362.38 53.58 362.42 54.42 366.87 42.45 375.52 41.45 376.37 39.12 384.94 69.02 385.52 68.98 390.52 .05 390.56"/>
      <path class="cls-2" d="M57.07,469.57l-45.25-.08-2.48-2.19L.9,398.7l2.48-2.81h62.27l2.48,2.81-8.57,68.67-2.49,2.19ZM14.03,464.49l40.83.08,7.95-63.67H6.2l7.83,63.59Z"/>
    </g>
    <g>
      <path class="cls-2" d="M903.75,619.54h-66.12c-13.08,0-23.72-10.64-23.72-23.72v-59.61c0-13.08,10.64-23.72,23.72-23.72h66.12c13.08,0,23.72,10.64,23.72,23.72v59.61c0,13.08-10.64,23.72-23.72,23.72ZM837.63,517.49c-10.32,0-18.72,8.4-18.72,18.72v59.61c0,10.32,8.4,18.72,18.72,18.72h66.12c10.32,0,18.72-8.4,18.72-18.72v-59.61c0-10.32-8.4-18.72-18.72-18.72h-66.12Z"/>
      <path class="cls-2" d="M870.83,595.64c-.08,0-.16,0-.24,0-16.34-.13-29.58-13.45-29.52-29.69.07-16.31,13.33-29.56,29.59-29.56h.05c16.3.03,29.57,13.31,29.59,29.61,0,7.95-3.11,15.43-8.77,21.06-5.58,5.54-12.92,8.58-20.71,8.58ZM870.66,541.39c-13.51,0-24.53,11.02-24.59,24.58-.05,13.49,10.96,24.56,24.56,24.67.07,0,.13,0,.2,0,6.46,0,12.55-2.53,17.19-7.13,4.71-4.68,7.3-10.9,7.3-17.51-.02-13.55-11.05-24.59-24.6-24.61h-.04Z"/>
      <g>
        <path class="cls-1" d="M903.22,534.79c-.05,1.23.91,2.24,2.15,2.28,1.22.04,2.25-.94,2.28-2.16.03-1.19-.99-2.24-2.19-2.27-1.18-.03-2.19.95-2.24,2.16Z"/>
        <path class="cls-2" d="M905.44,539.57s-.09,0-.14,0c-1.28-.04-2.45-.57-3.32-1.49-.86-.92-1.31-2.12-1.26-3.38h0c.09-2.57,2.26-4.61,4.79-4.56,1.24.03,2.46.57,3.33,1.49.88.92,1.34,2.11,1.31,3.35-.03,1.26-.56,2.43-1.48,3.3-.89.84-2.03,1.29-3.23,1.29ZM905.16,534.86c0,.09.03.17.07.21.04.04.08.07.19.06.14,0,.3-.07.3-.25l-.56-.02ZM905.16,534.86l.56.02c0-.06-.02-.15-.09-.22-.06-.07-.14-.09-.19-.09-.08-.01-.16.02-.21.07-.05.05-.08.12-.08.19v.03Z"/>
      </g>
    </g>
    <g>
      <path class="cls-2" d="M1212.02,619.96h-138.32l-2.5-2.5v-102.88l2.5-2.5h138.32l2.5,2.5v102.88l-2.5,2.5ZM1076.2,614.96h133.32v-97.88h-133.32v97.88Z"/>
      <polygon class="cls-2" points="1142.75 585.14 1071.72 516.06 1075.21 512.48 1144.44 579.81 1209.99 512.53 1213.58 516.01 1146.28 585.09 1142.75 585.14"/>
      <rect class="cls-2" x="1064.31" y="589.86" width="71.05" height="5" transform="translate(-101.38 935.3) rotate(-44.24)"/>
      <rect class="cls-2" x="1183.97" y="555.8" width="5" height="71.79" transform="translate(-72.04 1008.78) rotate(-44.84)"/>
    </g>
    <g>
      <path class="cls-2" d="M1139.6,114.04l-.02-.16c-1.25-12.05-3.35-32.21-16.77-47.54-.28-.32-.57-.66-.88-1.02-3.2-3.72-8.03-9.35-20.48-16.46l2.48-4.34c13.2,7.54,18.37,13.56,21.79,17.54.29.34.58.67.85.98,14.46,16.53,16.75,38.51,17.98,50.32l.02.16-4.97.52Z"/>
      <path class="cls-2" d="M1144.57,114.09l-4.96-.62c1.63-13.02,5.18-25.64,10.55-37.52,1.53-3.37,2.85-6.82,4.25-10.46,6.41-16.68,13.67-35.58,43.03-48.3l1.99,4.59c-27.44,11.89-34,28.98-40.35,45.51-1.37,3.55-2.78,7.23-4.36,10.73-5.17,11.42-8.58,23.56-10.15,36.08Z"/>
      <path class="cls-2" d="M1155.59,75.03l-4.23-2.62c-.18.36-.2.64-.2.65.04-.84-.72-4.48-1.32-7.41-1.03-4.99-2.2-10.65-2.2-13.97,0-17.29,4.31-28.86,13.57-36.44,12.94-10.59,35.11-12.56,56.46-5.02l.96,4.1c-.33.34-.7.71-1.08,1.09-2.44,2.45-5.79,5.79-7.56,10.67-1.24,3.42-2.15,7.73-3.12,12.29-2.59,12.25-5.52,26.14-16.52,31.64-8.14,4.07-17.42,4.03-24.87,4-3.85-.01-9.11-.04-9.9,1.02ZM1192.15,10.74c-11.05,0-21.03,2.85-27.78,8.37-10.4,8.51-11.73,21.87-11.73,32.57,0,2.8,1.16,8.43,2.1,12.96.43,2.08.75,3.69.99,4.95,2.53-.61,5.84-.59,9.79-.58,6.93.03,15.54.07,22.61-3.47,8.84-4.42,11.51-17.05,13.86-28.2,1-4.74,1.95-9.22,3.31-12.97,1.7-4.68,4.53-8.13,6.93-10.66-6.76-1.99-13.59-2.97-20.07-2.97Z"/>
    </g>
    <path class="cls-2" d="M41.6,619.04c-3.8,0-7.78-.66-11.8-2.21-13-5.02-21.89-18.34-21.6-32.38.24-11.63,6.86-19.74,9.7-22.68,11.07-11.5,26.09-10.98,28.99-10.76l2.31,2.51c0,1.36,0,15.98,0,15.98l-2.36,2.5s-4.26.25-7.63.95c-3.46.72-6.18,3.13-7.46,4.97-2.89,4.17-2.49,10.9.87,14.99,4.46,5.42,13.85,5.81,18.66,2.53,5.16-3.53,5.1-12.33,4.94-35.88l-.03-4.04c-.08-13.64-.08-27.11,0-40.03l2.5-2.48h13l2.49,2.27c.28,2.96,1.63,10.48,8.18,16.37,5.71,5.13,12.14,6.19,15.46,6.36l2.37,2.5v15l-2.64,2.5c-4.24-.23-8.46-.93-12.55-2.09-3.03-.86-5.99-1.97-8.84-3.31-.02,5.41-.01,10.73.02,15.89l.03,4.24c.09,13.71.12,17.85-2.2,23.7-.93,2.35-3.77,9.48-10.77,15.04-5.22,4.14-12.96,7.59-21.65,7.59ZM44.19,555.92c-4.79.05-14.91,1.22-22.7,9.31-2.43,2.52-8.1,9.45-8.3,19.32-.24,11.98,7.32,23.34,18.4,27.62,11.27,4.35,22.42.23,28.55-4.63,5.96-4.72,8.33-10.71,9.23-12.96,1.96-4.94,1.94-8.52,1.85-21.82l-.03-4.24c-.04-6.47-.04-13.21,0-20.03l3.73-2.17c3.61,2.04,7.47,3.64,11.45,4.77,2.88.82,5.84,1.38,8.82,1.7v-10.02c-4.25-.57-10.5-2.32-16.17-7.42-6.52-5.86-8.75-13.05-9.51-17.36h-8.33c-.07,12.14-.06,24.74.01,37.48l.03,4.04c.17,25.48.24,35.01-7.12,40.04-6.79,4.65-19.07,4.15-25.34-3.48-4.77-5.79-5.26-15.02-1.13-21.01,1.88-2.72,5.64-6,10.55-7.03,2.07-.43,4.35-.7,6.01-.86,0-2.99,0-8.17,0-11.26Z"/>
    <path class="cls-2" d="M1225.69,247.58l-2.5-2.38h-13c.32-15.62-4.58-29.1-14.2-39-8.58-8.83-20.75-14.31-32.96-14.93v-8.29h-5v8.31c-12.37.66-24.2,5.91-32.79,14.63-9.71,9.86-14.73,23.44-14.53,39.3h-13.53l-2.45,2c-.52,2.52-.98,7.52,1.74,12.67,1.86,3.52,4.47,5.71,6.35,6.93l1.28.4c18.11.65,36.48.99,54.59,1,.48,0,.96,0,1.45,0,18.64,0,37.53-.34,56.14-1l1.6-.66c2.67-2.46,4.8-5.54,6.13-8.92,1.25-3.16,1.83-6.63,1.67-10.04ZM1128.81,209.41c8.27-8.4,19.89-13.21,31.88-13.21s23.51,5.04,31.72,13.48c8.69,8.94,13.1,21.22,12.79,35.52h-89.48c-.2-14.52,4.33-26.89,13.09-35.79ZM1219.37,255.77c-1.15,2.91-2.83,5.05-4.22,6.46-18.73.66-37.72.95-56.45.96-17.81-.02-35.87-.34-53.69-.97-1.31-.94-2.92-2.45-4.1-4.69-1.43-2.7-1.65-5.36-1.53-7.33h121.28c-.15,1.91-.59,3.81-1.29,5.58Z"/>
    <path class="cls-2" d="M990.78,782.2l-27.29-36.36c6.88-6.18,11.27-14.53,12.44-23.79,1.29-10.22-1.47-20.34-7.78-28.48-6.31-8.15-15.42-13.34-25.64-14.64-10.23-1.3-20.34,1.47-28.49,7.78-8.14,6.31-13.34,15.42-14.64,25.64-2.67,21.1,12.32,40.45,33.42,43.12,1.65.21,3.29.31,4.93.31,7.47,0,14.72-2.16,21.01-6.28l27.24,36.29,4.8-3.6ZM933.56,749.52c-8.63-1.09-16.32-5.48-21.66-12.36-5.33-6.88-7.67-15.42-6.57-24.05,1.09-8.63,5.48-16.32,12.36-21.66,5.77-4.47,12.71-6.83,19.89-6.83,1.38,0,2.77.09,4.16.26,8.63,1.09,16.32,5.48,21.66,12.36,5.33,6.88,7.67,15.42,6.57,24.05-1.09,8.63-5.48,16.32-12.36,21.66-6.88,5.33-15.42,7.67-24.05,6.57Z"/>
    <g>
      <path class="cls-2" d="M513.15,679.62h-.35l-2.33-2.33h-60.25l-2.5,2.5v101.88l2.5,2.5h10.27v2.96h5v-2.96h29.65v2.96h5v-2.96h10.34l2.5-2.5v-.17h.18v-101.88ZM507.97,682.29v28.34h-55.25v-28.34h55.25ZM452.71,779.17v-63.54h55.25v63.54h-55.25Z"/>
      <rect class="cls-2" x="456.32" y="689.03" width="5" height="16.17"/>
      <rect class="cls-2" x="456.32" y="721.06" width="5" height="16.17"/>
    </g>
    <g>
      <path class="cls-2" d="M763.44,690.8c-1.34-7.05-7.53-12.39-14.96-12.39s-13.62,5.35-14.96,12.39h-83.15v5h83.05c1.05,7.38,7.4,13.08,15.07,13.08s14.01-5.7,15.07-13.08h12.13v-5h-12.24ZM748.48,703.89c-5.65,0-10.24-4.59-10.24-10.24s4.59-10.24,10.24-10.24,10.24,4.59,10.24,10.24-4.59,10.24-10.24,10.24Z"/>
      <path class="cls-2" d="M723.7,755.53c-7.43,0-13.62,5.35-14.96,12.39h-58.37v5h58.26c1.05,7.38,7.4,13.08,15.07,13.08s14.01-5.7,15.07-13.08h36.92v-5h-37.02c-1.34-7.05-7.53-12.39-14.96-12.39ZM723.7,781c-5.65,0-10.24-4.59-10.24-10.24s4.59-10.24,10.24-10.24,10.24,4.59,10.24,10.24-4.59,10.24-10.24,10.24Z"/>
      <path class="cls-2" d="M676.88,746.75c7.43,0,13.62-5.35,14.96-12.39h83.15v-5h-83.05c-1.05-7.38-7.4-13.08-15.07-13.08s-14.01,5.7-15.07,13.08h-12.13v5h12.23c1.34,7.05,7.53,12.39,14.96,12.39ZM676.88,721.28c5.65,0,10.24,4.59,10.24,10.24s-4.59,10.24-10.24,10.24-10.24-4.59-10.24-10.24,4.59-10.24,10.24-10.24Z"/>
    </g>
  </g>
</svg>