<?xml version="1.0" encoding="UTF-8"?>
<svg id="Calque_2" data-name="Calque 2" xmlns="http://www.w3.org/2000/svg" viewBox="0 0 445 223">
  <defs>
    <style>
      .cls-1 {
        opacity: .5;
      }

      .cls-1, .cls-2 {
        fill: #3a5777;
      }

      .cls-1, .cls-2, .cls-3 {
        stroke-width: 0px;
      }

      .cls-4 {
        fill: none;
        stroke: #1d1d1b;
        stroke-miterlimit: 10;
      }

      .cls-3 {
        fill: #5892b2;
      }
    </style>
  </defs>
  <g id="Calque_1-2" data-name="Calque 1">
    <g>
      <g>
        <g>
          <path class="cls-2" d="M103.08,70.47s.08,14.93.08,27.8c0,.16,0,.33,0,.56,3.42-1.38,7-2.71,10.58-3.49v-35.52s6.2,0,6.2,0c0,0,0,28.63.01,40.84-.89,0-2.51.2-3.61.42-3.16.63-6.29,1.46-9.31,2.6-6.97,2.63-13.18,6.39-18.62,11.29-.5.46-.97.96-1.45,1.43-.13.13-.2.26-.18.44,0,.11,0,.23,0,.35,0,14.53,0,29.06.01,43.59l-.05.05h-6.09s-.02-.01-.03-.02c-.38-1.93-.73-3.86-1.15-5.78-2.02-9.43-5.2-18.45-9.54-27.06-4.2-8.34-9.36-16.03-15.47-23.09-1.3-1.51-2.62-3-4.21-4.22-.05-.04-.1-.08-.15-.13-.03-.04-.06-.08-.12-.16,1.26-1.49,2.53-2.98,3.79-4.47.17.13,18.21-.02,27.08-.02v-36.04c2,0,4.24,0,6.22,0,0,.2,0,48.72.02,48.84,0,0,.18-.5.57-.88,2.51-2.47,5.64-4.45,8.76-5.75.59-.25.43-.48.43-.48-.02-13.76-.01-31.08-.01-31.08h6.22ZM59.7,101.82c.85,1.04,1.66,2.02,2.45,3.02.79,1,1.57,2,2.33,3.02.77,1.03,1.52,2.07,2.25,3.13.73,1.04,1.43,2.1,2.13,3.17.7,1.08,1.38,2.17,2.04,3.27.66,1.09,1.29,2.19,1.92,3.3.63,1.12,1.24,2.25,1.83,3.39.58,1.13,1.15,2.27,1.7,3.41.55,1.16,1.09,2.33,1.6,3.5.51,1.16,1,2.34,1.47,3.52.48,1.18.93,2.38,1.43,3.56,0-12.09,0-24.19-.01-36.3h-21.13Z"/>
          <path class="cls-3" d="M109.73,132.9c-.34-2.13-2.09-3.86-4.22-4.18-3.38-.5-6.22,2.31-5.79,5.71.27,2.13,1.96,3.91,4.08,4.29,3.48.63,6.48-2.34,5.93-5.82Z"/>
        </g>
        <g>
          <path class="cls-3" d="M177.91,124.44c.13,0,.24.06.3.18.07.12.07.23,0,.35l-10.29,16.35-.23.38v18.6c0,.24-.11.35-.35.35h-1.69c-.22,0-.33-.12-.33-.35v-18.65s-10.51-16.68-10.51-16.68c-.07-.12-.07-.23,0-.35.07-.12.17-.18.3-.18h1.99c.13,0,.24.05.3.15l9.09,14.48,9.1-14.49c.07-.1.17-.15.3-.15h1.99Z"/>
          <path class="cls-3" d="M189.96,159.23c-2.15-.92-4.07-2.22-5.76-3.88-1.67-1.68-2.96-3.6-3.89-5.75-.94-2.24-1.41-4.58-1.41-7.04s.47-4.8,1.41-7.04c.92-2.15,2.22-4.07,3.88-5.76,1.68-1.67,3.6-2.95,5.75-3.86,2.24-.96,4.58-1.44,7.04-1.44s4.8.48,7.04,1.44c2.15.91,4.07,2.19,5.75,3.86,1.67,1.68,2.95,3.6,3.86,5.75.96,2.24,1.44,4.58,1.44,7.04s-.48,4.8-1.44,7.04c-.91,2.15-2.19,4.07-3.86,5.75-1.68,1.67-3.6,2.96-5.75,3.89-2.24.94-4.58,1.42-7.04,1.42s-4.8-.47-7.04-1.41ZM190.88,128.09c-1.88.79-3.55,1.91-5,3.36-1.45,1.45-2.56,3.11-3.35,5-.82,1.95-1.23,3.99-1.23,6.11s.41,4.15,1.24,6.11c.79,1.88,1.91,3.55,3.36,5,1.45,1.45,3.11,2.56,5,3.35,1.95.82,3.99,1.24,6.11,1.23s4.15-.41,6.11-1.24c1.88-.79,3.55-1.91,5-3.36,1.45-1.45,2.56-3.11,3.35-5,.82-1.95,1.24-3.99,1.23-6.11s-.41-4.15-1.24-6.11c-.79-1.88-1.91-3.55-3.36-5-1.45-1.45-3.11-2.56-5-3.35-1.95-.82-3.99-1.23-6.11-1.23s-4.15.41-6.11,1.24Z"/>
          <path class="cls-3" d="M225.76,156.92c-2.22-2.35-3.33-5.16-3.33-8.4v-23.67c0-.23.11-.35.35-.35h1.67c.23,0,.35.12.35.35v23.69c0,2.59.88,4.83,2.64,6.71,1.78,1.9,3.94,2.9,6.49,3,2.69.1,5-.79,6.94-2.68,1.93-1.87,2.9-4.14,2.9-6.81v-23.92c0-.23.11-.35.34-.35h1.69c.22,0,.33.12.33.35v23.92c0,3.33-1.18,6.17-3.57,8.5-2.4,2.34-5.28,3.46-8.63,3.36-3.2-.1-5.91-1.34-8.15-3.71Z"/>
          <path class="cls-3" d="M255.11,143.92v-19.08c0-.23.11-.35.35-.35h12.97c2.64,0,4.91.92,6.81,2.77,1.88,1.87,2.85,4.12,2.9,6.76.03,2.71-.93,5.04-2.9,6.99-1.97,1.94-4.31,2.9-7.04,2.9h-13.1ZM255.46,160.62c-.23,0-.35-.12-.35-.35v-21.57s2.36,0,2.36,0v21.57c0,.24-.1.35-.32.35h-1.69ZM257.48,141.52h10.95c2.02,0,3.74-.72,5.17-2.15s2.14-3.15,2.14-5.17-.72-3.75-2.15-5.2c-1.43-1.43-3.15-2.14-5.17-2.14h-10.95s0,14.66,0,14.66ZM275.1,160.61c-.13,0-.23-.06-.3-.18l-9.22-16.83,2.09-1.14,9.64,17.63c.07.1.07.21,0,.33-.07.12-.17.18-.3.18h-1.92Z"/>
          <path class="cls-3" d="M304.61,129.64c-.15.15-.3.16-.45.03-.14-.1-.26-.2-.38-.3-.19-.12-.36-.24-.53-.38-.45-.32-.89-.61-1.31-.86-1.06-.55-2.16-.96-3.31-1.21-.86-.17-1.58-.26-2.17-.28h-.58s-.61,0-.61,0c-.2,0-.42.02-.66.05l-.3.02-.3.03c-.97.13-1.8.34-2.47.61-.87.34-1.59.8-2.14,1.39-.61.61-1.03,1.36-1.29,2.27l-.08.35c-.03.14-.05.25-.05.35-.05.3-.08.54-.08.71l-.03.38v.03s0,.02,0,.02v-.08s0,.05,0,.05v.13s.03.2.03.2l.03.43.05.3.02.15.05.18.1.33c.02.08.06.19.13.33l.08.15.08.18.18.3.18.3.13.15.1.15c.08.12.16.21.23.28.62.69,1.46,1.35,2.52,1.97.79.45,1.83.97,3.13,1.54l.43.18.43.2.83.38,1.64.76c1.35.61,2.47,1.19,3.38,1.76,1.24.79,2.25,1.63,3.03,2.52.93,1.09,1.52,2.31,1.79,3.66l.1.51c.03.2.05.37.05.5l.03.51.03.25v.08s0,.03,0,.03v.05s0,.13,0,.13l-.03.43-.03.2v.25s-.07.5-.07.5l-.08.51c-.27,1.33-.8,2.5-1.59,3.51-.76.98-1.71,1.76-2.85,2.35-.91.47-1.97.84-3.18,1.11l-.38.08-.4.05c-.3.07-.55.1-.76.1l-.76.08-.73.03-.35.03h-.18s-.13,0-.13,0h-.1s-.66-.03-.66-.03c-.19,0-.4-.02-.66-.05l-.35-.03-.35-.05c-.77-.08-1.61-.24-2.5-.48-1.33-.37-2.6-.9-3.81-1.59-.45-.27-.88-.55-1.29-.83-.32-.22-.62-.44-.91-.68-.19-.15-.35-.29-.51-.43-.17-.17-.17-.34,0-.51l1.24-1.16c.15-.15.31-.15.48,0,.1.08.2.17.3.25.23.2.49.4.76.58.35.25.72.49,1.11.71,1.04.61,2.13,1.06,3.26,1.36.77.22,1.49.37,2.14.45l.28.02.28.03c.22.03.43.05.63.05l.66.03h.08s.05,0,.05,0l.15-.03h.33s.63-.03.63-.03l.66-.05c.19-.02.4-.04.66-.08l.33-.08.35-.05c.99-.22,1.84-.51,2.55-.88.84-.42,1.54-.99,2.09-1.69.57-.74.96-1.6,1.16-2.57l.05-.33.05-.35c.02-.05.03-.12.03-.2v-.2s.03-.43.03-.43v-.13s0-.05,0-.05v-.02s0,.05,0,.05v-.03s0-.18,0-.18l-.03-.38c0-.1,0-.23-.03-.38l-.05-.18-.03-.18c-.2-.97-.64-1.86-1.31-2.65-1.06-1.24-2.92-2.48-5.58-3.71l-1.69-.76-.81-.4-.38-.18-.43-.18c-1.38-.61-2.5-1.16-3.36-1.66-1.26-.76-2.28-1.56-3.05-2.42-.1-.1-.21-.23-.33-.38l-.15-.2-.15-.2c-.24-.37-.41-.66-.53-.88l-.1-.25-.1-.23c-.08-.18-.14-.34-.18-.48l-.15-.48-.05-.28-.05-.25-.1-.53v-.43s-.03-.2-.03-.2v-.13s0-.05,0-.05v-.08s0-.02,0,0v-.03s0-.48,0-.48c.02-.25.05-.57.1-.96.02-.13.04-.29.08-.45l.13-.45c.34-1.31.95-2.4,1.84-3.28.79-.79,1.77-1.42,2.93-1.89.86-.34,1.87-.58,3.03-.73l.38-.03.38-.03c.27-.03.5-.05.68-.05h.68s.68.02.68.02c.72.02,1.57.12,2.52.3,1.35.3,2.63.78,3.86,1.44.47.25.91.52,1.31.81.32.2.63.42.93.66.1.1.26.24.48.43.17.17.17.34,0,.51l-1.06,1.03Z"/>
          <path class="cls-3" d="M316.01,126.86v14.48s13.68,0,13.68,0c.24,0,.35.12.35.35v1.67c0,.24-.12.35-.35.35h-13.68s0,14.51,0,14.51h20.54c.23,0,.35.11.35.35v1.67c0,.24-.12.35-.35.35h-22.56c-.23,0-.35-.11-.35-.35v-35.43c-.01-.23.11-.35.34-.35h22.56c.23,0,.35.11.35.35v1.69c0,.23-.12.35-.35.35h-20.54Z"/>
          <path class="cls-3" d="M343.71,160.59c-.23,0-.35-.12-.35-.35v-35.53c-.01-.22.11-.33.34-.33h1.69c.23,0,.35.11.35.33v33.48s16.94,0,16.94,0c.23,0,.35.12.35.35v1.69c0,.24-.12.35-.35.35h-18.98Z"/>
          <path class="cls-3" d="M388.81,124.44c.23,0,.35.12.35.35v1.67c0,.24-.12.35-.35.35h-18.85s0,14.44,0,14.44h13.42c.23,0,.35.11.35.35v1.69c0,.24-.12.35-.35.35h-13.42s0,16.58,0,16.58c0,.24-.12.35-.35.35h-1.69c-.23,0-.35-.12-.35-.35v-35.43c-.01-.23.11-.35.34-.35h20.89Z"/>
        </g>
        <g>
          <path class="cls-2" d="M188.78,104.81c.14.25.1.45-.12.61-3.57,2.63-7.51,3.95-11.82,3.95-3.02,0-5.92-.68-8.68-2.04-2.66-1.32-5-3.18-7.02-5.58-4.3-5.08-6.27-11.13-5.93-18.15.3-6.04,2.36-11.25,6.16-15.63,3.79-4.38,8.37-6.81,13.73-7.29,4.92-.43,9.42.85,13.52,3.84.22.16.26.36.12.61l-2.66,4.39c-.14.25-.32.3-.54.14-3.02-2.2-6.35-3.14-9.98-2.82-4.11.37-7.61,2.27-10.49,5.72-2.86,3.45-4.32,7.52-4.38,12.19-.06,5.06,1.5,9.4,4.69,13.01,3.17,3.61,6.99,5.41,11.46,5.41,3.19,0,6.1-.97,8.74-2.9.22-.16.4-.11.54.14l2.66,4.39Z"/>
          <path class="cls-2" d="M213.59,60.6c5.97,0,11.07,2.38,15.31,7.15s6.35,10.51,6.36,17.23-2.11,12.46-6.35,17.23-9.33,7.15-15.3,7.16-11.07-2.38-15.31-7.15-6.35-10.51-6.36-17.23,2.11-12.46,6.35-17.23,9.33-7.15,15.3-7.16ZM213.6,103.13c4.43,0,8.24-1.77,11.4-5.31,3.14-3.54,4.72-7.82,4.71-12.84s-1.58-9.27-4.72-12.84c-3.17-3.54-6.97-5.31-11.4-5.31s-8.26,1.77-11.4,5.32c-3.14,3.57-4.72,7.85-4.71,12.84s1.58,9.3,4.72,12.84c3.15,3.54,6.95,5.31,11.4,5.31Z"/>
          <path class="cls-2" d="M262.67,60.59c5.97,0,11.07,2.38,15.31,7.15,4.24,4.77,6.35,10.51,6.36,17.23s-2.11,12.46-6.35,17.23c-4.23,4.77-9.33,7.15-15.3,7.16-5.97,0-11.07-2.38-15.31-7.15-4.24-4.77-6.35-10.51-6.36-17.23s2.11-12.46,6.35-17.23c4.23-4.77,9.33-7.15,15.3-7.16ZM262.69,103.12c4.43,0,8.24-1.77,11.4-5.31,3.14-3.54,4.72-7.82,4.71-12.84s-1.58-9.27-4.72-12.84c-3.17-3.54-6.97-5.31-11.4-5.31s-8.26,1.77-11.4,5.32c-3.14,3.57-4.72,7.85-4.71,12.84s1.58,9.3,4.72,12.84c3.15,3.54,6.95,5.31,11.4,5.31Z"/>
          <path class="cls-2" d="M324.08,108.58c.14.14.17.29.09.48-.06.18-.18.27-.36.27h-6.93c-.12,0-.21-.04-.27-.13l-17.85-18.82v18.52c0,.3-.13.44-.39.44h-4.75c-.26,0-.39-.15-.39-.44l-.02-47.91c0-.29.13-.44.39-.44h4.75c.26,0,.39.15.39.44v18.12s16.39-18.39,16.39-18.39c.08-.09.17-.14.27-.14h6.71c.18,0,.3.09.36.27.08.18.06.34-.06.48l-20.89,23.47,22.54,23.79Z"/>
          <path class="cls-2" d="M333.41,67.47l-1.45-.65c-.26-.11-.35-.32-.27-.61l2.45-7.19c.1-.27.28-.35.54-.24l1.45.61c.26.11.35.31.27.58l-2.45,7.22c-.1.3-.28.39-.54.27Z"/>
          <path class="cls-2" d="M353.06,60.56c.26,0,.39.15.39.44l.02,47.88c0,.3-.13.44-.39.44h-4.75c-.26,0-.39-.15-.39-.44l-.02-47.88c0-.3.13-.44.39-.44h4.75Z"/>
          <path class="cls-2" d="M389.39,60.54c.26,0,.39.15.39.44v5.31c0,.3-.13.44-.39.44h-11.34s.01,42.13.01,42.13c0,.3-.13.44-.39.44h-4.72c-.26,0-.39-.15-.39-.44v-42.12s-11.39,0-11.39,0c-.26,0-.39-.15-.39-.44v-5.31c0-.3.13-.44.39-.44h28.22Z"/>
        </g>
      </g>
      <line class="cls-4" y1="59.75" x2="445" y2="59.75"/>
      <line class="cls-4" y1="10.75" x2="445" y2="10.75"/>
      <line class="cls-4" y1="160.75" x2="445" y2="160.75"/>
      <path class="cls-1" d="M153.76,54.85c.14.25.1.45-.12.61-3.57,2.63-7.51,3.95-11.82,3.95-3.02,0-5.92-.68-8.68-2.04-2.66-1.32-5-3.18-7.02-5.58-4.3-5.08-6.27-11.13-5.93-18.15.3-6.04,2.36-11.25,6.16-15.63,3.79-4.38,8.37-6.81,13.73-7.29,4.92-.43,9.42.85,13.52,3.84.22.16.26.36.12.61l-2.66,4.39c-.14.25-.32.3-.54.14-3.02-2.2-6.35-3.14-9.98-2.82-4.11.37-7.61,2.27-10.49,5.72-2.86,3.45-4.32,7.52-4.38,12.19-.06,5.06,1.5,9.4,4.69,13.01,3.17,3.61,6.99,5.41,11.46,5.41,3.19,0,6.1-.97,8.74-2.9.22-.16.4-.11.54.14l2.66,4.39Z"/>
      <path class="cls-1" d="M49.76,154.85c.14.25.1.45-.12.61-3.57,2.63-7.51,3.95-11.82,3.95-3.02,0-5.92-.68-8.68-2.04-2.66-1.32-5-3.18-7.02-5.58-4.3-5.08-6.27-11.13-5.93-18.15.3-6.04,2.36-11.25,6.16-15.63,3.79-4.38,8.37-6.81,13.73-7.29,4.92-.43,9.42.85,13.52,3.84.22.16.26.36.12.61l-2.66,4.39c-.14.25-.32.3-.54.14-3.02-2.2-6.35-3.14-9.98-2.82-4.11.37-7.61,2.27-10.49,5.72-2.86,3.45-4.32,7.52-4.38,12.19-.06,5.06,1.5,9.4,4.69,13.01,3.17,3.61,6.99,5.41,11.46,5.41,3.19,0,6.1-.97,8.74-2.9.22-.16.4-.11.54.14l2.66,4.39Z"/>
      <line class="cls-4" y1="209.75" x2="445" y2="209.75"/>
      <path class="cls-1" d="M153.76,204.85c.14.25.1.45-.12.61-3.57,2.63-7.51,3.95-11.82,3.95-3.02,0-5.92-.68-8.68-2.04-2.66-1.32-5-3.18-7.02-5.58-4.3-5.08-6.27-11.13-5.93-18.15.3-6.04,2.36-11.25,6.16-15.63,3.79-4.38,8.37-6.81,13.73-7.29,4.92-.43,9.42.85,13.52,3.84.22.16.26.36.12.61l-2.66,4.39c-.14.25-.32.3-.54.14-3.02-2.2-6.35-3.14-9.98-2.82-4.11.37-7.61,2.27-10.49,5.72-2.86,3.45-4.32,7.52-4.38,12.19-.06,5.06,1.5,9.4,4.69,13.01,3.17,3.61,6.99,5.41,11.46,5.41,3.19,0,6.1-.97,8.74-2.9.22-.16.4-.11.54.14l2.66,4.39Z"/>
      <line class="cls-4" x1="50.52" y1="0" x2="49.51" y2="223"/>
      <line class="cls-4" x1="16.5" y1="0" x2="15.49" y2="223"/>
      <line class="cls-4" x1="120.5" y1="0" x2="119.49" y2="223"/>
      <line class="cls-4" x1="154.5" y1="0" x2="153.49" y2="223"/>
      <path class="cls-1" d="M423.76,54.85c.14.25.1.45-.12.61-3.57,2.63-7.51,3.95-11.82,3.95-3.02,0-5.92-.68-8.68-2.04-2.66-1.32-5-3.18-7.02-5.58-4.3-5.08-6.27-11.13-5.93-18.15.3-6.04,2.36-11.25,6.16-15.63,3.79-4.38,8.37-6.81,13.73-7.29,4.92-.43,9.42.85,13.52,3.84.22.16.26.36.12.61l-2.66,4.39c-.14.25-.32.3-.54.14-3.02-2.2-6.35-3.14-9.98-2.82-4.11.37-7.61,2.27-10.49,5.72-2.86,3.45-4.32,7.52-4.38,12.19-.06,5.06,1.5,9.4,4.69,13.01,3.17,3.61,6.99,5.41,11.46,5.41,3.19,0,6.1-.97,8.74-2.9.22-.16.4-.11.54.14l2.66,4.39Z"/>
      <path class="cls-1" d="M423.76,204.85c.14.25.1.45-.12.61-3.57,2.63-7.51,3.95-11.82,3.95-3.02,0-5.92-.68-8.68-2.04-2.66-1.32-5-3.18-7.02-5.58-4.3-5.08-6.27-11.13-5.93-18.15.3-6.04,2.36-11.25,6.16-15.63,3.79-4.38,8.37-6.81,13.73-7.29,4.92-.43,9.42.85,13.52,3.84.22.16.26.36.12.61l-2.66,4.39c-.14.25-.32.3-.54.14-3.02-2.2-6.35-3.14-9.98-2.82-4.11.37-7.61,2.27-10.49,5.72-2.86,3.45-4.32,7.52-4.38,12.19-.06,5.06,1.5,9.4,4.69,13.01,3.17,3.61,6.99,5.41,11.46,5.41,3.19,0,6.1-.97,8.74-2.9.22-.16.4-.11.54.14l2.66,4.39Z"/>
      <line class="cls-4" x1="390.5" y1="0" x2="389.49" y2="223"/>
      <line class="cls-4" x1="424.5" y1="0" x2="423.49" y2="223"/>
    </g>
  </g>
</svg>