<?xml version="1.0" encoding="UTF-8"?>
<svg id="Calque_2" data-name="Calque 2" xmlns="http://www.w3.org/2000/svg" viewBox="0 0 126 107.59">
  <defs>
    <style>
      .cls-1 {
        fill: #3a5777;
        stroke-width: 0px;
      }
    </style>
  </defs>
  <g id="Calque_1-2" data-name="Calque 1">
    <g>
      <path class="cls-1" d="M113.76,12.39c-1.34-7.05-7.53-12.39-14.96-12.39s-13.62,5.35-14.96,12.39H.69v5h83.05c1.05,7.38,7.4,13.08,15.07,13.08s14.01-5.7,15.07-13.08h12.13v-5h-12.24ZM98.8,25.48c-5.65,0-10.24-4.59-10.24-10.24s4.59-10.24,10.24-10.24,10.24,4.59,10.24,10.24-4.59,10.24-10.24,10.24Z"/>
      <path class="cls-1" d="M74.02,77.12c-7.43,0-13.62,5.35-14.96,12.39H.69v5h58.26c1.05,7.38,7.4,13.08,15.07,13.08s14.01-5.7,15.07-13.08h36.92v-5h-37.02c-1.34-7.05-7.53-12.39-14.96-12.39ZM74.02,102.59c-5.65,0-10.24-4.59-10.24-10.24s4.59-10.24,10.24-10.24,10.24,4.59,10.24,10.24-4.59,10.24-10.24,10.24Z"/>
      <path class="cls-1" d="M27.2,68.34c7.43,0,13.62-5.35,14.96-12.39h83.15v-5H42.26c-1.05-7.38-7.4-13.08-15.07-13.08s-14.01,5.7-15.07,13.08H0v5h12.23c1.34,7.05,7.53,12.39,14.96,12.39ZM27.2,42.87c5.65,0,10.24,4.59,10.24,10.24s-4.59,10.24-10.24,10.24-10.24-4.59-10.24-10.24,4.59-10.24,10.24-10.24Z"/>
    </g>
  </g>
</svg>