<?xml version="1.0" encoding="UTF-8"?>
<svg id="Calque_2" data-name="Calque 2" xmlns="http://www.w3.org/2000/svg" viewBox="0 0 18.75 17.68">
  <defs>
    <style>
      .cls-1 {
        fill: #a7baa7;
        stroke-width: 0px;
      }
    </style>
  </defs>
  <g id="Calque_1-2" data-name="Calque 1">
    <g>
      <path class="cls-1" d="M14.84,17.68H3.92c-2.16,0-3.92-1.76-3.92-3.92V3.92C0,1.76,1.76,0,3.92,0h10.92c2.16,0,3.92,1.76,3.92,3.92v9.84c0,2.16-1.76,3.92-3.92,3.92ZM3.92.83C2.21.83.83,2.21.83,3.92v9.84c0,1.7,1.39,3.09,3.09,3.09h10.92c1.7,0,3.09-1.39,3.09-3.09V3.92c0-1.7-1.39-3.09-3.09-3.09H3.92Z"/>
      <path class="cls-1" d="M9.4,13.73h-.04c-2.7-.02-4.89-2.22-4.88-4.9.01-2.69,2.2-4.88,4.89-4.88h0c2.69,0,4.88,2.2,4.89,4.89,0,1.31-.51,2.55-1.45,3.48-.92.91-2.13,1.42-3.42,1.42ZM9.37,4.77c-2.23,0-4.05,1.82-4.06,4.06,0,2.23,1.81,4.05,4.05,4.07,1.07.02,2.1-.41,2.87-1.18.78-.77,1.21-1.8,1.21-2.89,0-2.24-1.83-4.06-4.06-4.06h0Z"/>
      <g>
        <path class="cls-1" d="M14.75,3.68c0,.2.15.37.36.38.2,0,.37-.16.38-.36,0-.2-.16-.37-.36-.37-.19,0-.36.16-.37.36Z"/>
        <path class="cls-1" d="M15.11,4.47h-.02c-.21,0-.4-.09-.55-.25s-.22-.35-.21-.56h0c.02-.43.33-.77.79-.76.21,0,.41.1.55.25s.22.35.21.55c0,.21-.09.4-.24.54-.15.14-.33.21-.54.21ZM15.15,3.66l-.4.02h.41s0,0-.01-.02Z"/>
      </g>
    </g>
  </g>
</svg>