<?xml version="1.0" encoding="UTF-8"?>
<svg id="Calque_2" data-name="Calque 2" xmlns="http://www.w3.org/2000/svg" viewBox="0 0 91.7 107.19">
  <defs>
    <style>
      .cls-1 {
        fill: #5892b2;
        stroke-width: 0px;
      }
    </style>
  </defs>
  <g id="Calque_1-2" data-name="Calque 1">
    <path class="cls-1" d="M91.7,103.59l-27.29-36.36c6.88-6.18,11.27-14.53,12.44-23.79,1.29-10.22-1.47-20.34-7.78-28.48C62.76,6.81,53.66,1.61,43.43.31c-10.23-1.3-20.34,1.47-28.49,7.78C6.8,14.41,1.6,23.51.31,33.74c-2.67,21.1,12.32,40.45,33.42,43.12,1.65.21,3.29.31,4.93.31,7.47,0,14.72-2.16,21.01-6.28l27.24,36.29,4.8-3.6ZM34.49,70.91c-8.63-1.09-16.32-5.48-21.66-12.36-5.33-6.88-7.67-15.42-6.57-24.05,1.09-8.63,5.48-16.32,12.36-21.66,5.77-4.47,12.71-6.83,19.89-6.83,1.38,0,2.77.09,4.16.26,8.63,1.09,16.32,5.48,21.66,12.36,5.33,6.88,7.67,15.42,6.57,24.05-1.09,8.63-5.48,16.32-12.36,21.66-6.88,5.33-15.42,7.67-24.05,6.57Z"/>
  </g>
</svg>