<?xml version="1.0" encoding="UTF-8"?>
<svg id="Calque_2" data-name="Calque 2" xmlns="http://www.w3.org/2000/svg" viewBox="0 0 124.89 107.61">
  <defs>
    <style>
      .cls-1 {
        fill: #3a5777;
        stroke-width: 0px;
      }
    </style>
  </defs>
  <g id="Calque_1-2" data-name="Calque 1">
    <g>
      <path class="cls-1" d="M66.51,74.64l-22.54-15.91-.74-3.26L73.06,1.77l3.67-.79,35.8,26.52.28,3.78-43.09,43.09-3.21.27ZM48.69,55.94l18.99,13.4,39.55-39.55-31.18-23.1-27.36,49.25Z"/>
      <polygon class="cls-1" points="89.9 89.25 86.52 88.7 71.27 68.81 75.24 65.77 89.06 83.79 119.27 63.46 99.85 40.39 103.68 37.17 124.89 62.37 124.38 66.05 89.9 89.25"/>
      <polygon class="cls-1" points="107.41 107.61 103.58 106.99 90.98 85.11 95.31 82.62 106.37 101.83 115.36 93.78 107.4 74.2 112.04 72.32 120.66 93.53 120.01 96.34 107.41 107.61"/>
      <polygon class="cls-1" points="47.57 53.2 24.13 44.34 22.62 41.26 34.89 1.56 38.27 0 68.51 13.04 66.53 17.64 38.85 5.69 28.09 40.49 49.34 48.52 47.57 53.2"/>
      <path class="cls-1" d="M26.28,39.03L1.7,33.28l-1.7-3.49,7.16-15.31,2.5-1.43,22.8,2.13,2.17,3.17-5.38,18.93-2.97,1.75ZM5.83,29.12l19.26,4.5,3.9-13.74-18.05-1.69-5.11,10.93Z"/>
    </g>
  </g>
</svg>