<?xml version="1.0" encoding="UTF-8"?>
<svg id="Calque_2" data-name="Calque 2" xmlns="http://www.w3.org/2000/svg" viewBox="0 0 159.07 107.64">
  <defs>
    <style>
      .cls-1 {
        fill: #3a5777;
        stroke-width: 0px;
      }
    </style>
  </defs>
  <g id="Calque_1-2" data-name="Calque 1">
    <g>
      <path class="cls-1" d="M77.97,50.02c-13.79,0-25.01-11.22-25.01-25.01S64.18,0,77.97,0s25.01,11.22,25.01,25.01-11.22,25.01-25.01,25.01ZM77.97,5c-11.03,0-20.01,8.98-20.01,20.01s8.98,20.01,20.01,20.01,20.01-8.98,20.01-20.01-8.98-20.01-20.01-20.01Z"/>
      <path class="cls-1" d="M125.5,59.05c-10.15,0-18.4-8.25-18.4-18.4s8.25-18.4,18.4-18.4,18.4,8.25,18.4,18.4-8.25,18.4-18.4,18.4ZM125.5,27.25c-7.39,0-13.4,6.01-13.4,13.4s6.01,13.4,13.4,13.4,13.4-6.01,13.4-13.4-6.01-13.4-13.4-13.4Z"/>
      <path class="cls-1" d="M119.1,107.64c-.16-11.67-4.98-22.45-13.59-30.35-8.08-7.42-18.62-11.24-28.97-10.5-19.9,1.43-36.02,18.92-36.68,39.81l-5-.16c.75-23.42,18.9-43.03,41.32-44.64,11.7-.85,23.62,3.46,32.71,11.8,9.49,8.71,15.03,21.1,15.21,33.97l-5,.07Z"/>
      <path class="cls-1" d="M159.03,106.53l-4.99-.26c.14-2.74.3-16.84-10.64-25.85-3.25-2.67-11.87-8.62-21.89-6.24-3.09.74-6,2.19-8.63,4.32l-3.14-3.89c3.22-2.6,6.79-4.39,10.62-5.3,12.2-2.91,22.41,4.09,26.23,7.24,12.8,10.54,12.62,26.82,12.46,29.98Z"/>
      <path class="cls-1" d="M30.14,59.03c-10.15,0-18.4-8.25-18.4-18.4s8.25-18.4,18.4-18.4,18.4,8.25,18.4,18.4-8.25,18.4-18.4,18.4ZM30.14,27.23c-7.39,0-13.4,6.01-13.4,13.4s6.01,13.4,13.4,13.4,13.4-6.01,13.4-13.4-6.01-13.4-13.4-13.4Z"/>
      <path class="cls-1" d="M.04,106.52c-.16-3.16-.34-19.43,12.46-29.97,3.82-3.15,14.02-10.16,26.23-7.24,3.83.91,7.4,2.7,10.62,5.3l-3.14,3.89c-2.63-2.13-5.54-3.59-8.63-4.32-10.03-2.39-18.65,3.56-21.89,6.23-10.94,9.01-10.79,23.12-10.64,25.85l-4.99.26Z"/>
    </g>
  </g>
</svg>