<?xml version="1.0" encoding="UTF-8"?>
<svg id="Calque_2" data-name="Calque 2" xmlns="http://www.w3.org/2000/svg" viewBox="0 0 106.51 106.51">
  <defs>
    <style>
      .cls-1 {
        fill: #a7baa7;
        stroke-width: 0px;
      }
    </style>
  </defs>
  <g id="Calque_1-2" data-name="Calque 1">
    <g>
      <path class="cls-1" d="M53.26,106.51C23.89,106.51,0,82.62,0,53.26S23.89,0,53.26,0s53.26,23.89,53.26,53.26-23.89,53.26-53.26,53.26ZM53.26,5C26.65,5,5,26.65,5,53.26s21.65,48.26,48.26,48.26,48.26-21.65,48.26-48.26S79.86,5,53.26,5ZM55.69,70.2h-5v-7.54c-4.53-1.2-7.88-5.33-7.88-10.24s3.35-9.04,7.88-10.24v-14.8h5v14.7c4.74,1.05,8.3,5.29,8.3,10.34s-3.56,9.29-8.3,10.34v7.44ZM53.4,46.83c-3.08,0-5.59,2.51-5.59,5.59s2.51,5.59,5.59,5.59,5.59-2.51,5.59-5.59-2.51-5.59-5.59-5.59Z"/>
      <rect class="cls-1" x="85.64" y="9.92" width="9" height="5" transform="translate(20.75 71.28) rotate(-48.15)"/>
      <rect class="cls-1" x="91.29" y=".19" width="5" height="16.46" transform="translate(21.52 68.78) rotate(-45)"/>
    </g>
  </g>
</svg>