<?xml version="1.0" encoding="UTF-8"?>
<svg id="Calque_2" data-name="Calque 2" xmlns="http://www.w3.org/2000/svg" viewBox="0 0 117.07 108.15">
  <defs>
    <style>
      .cls-1 {
        fill: #3a5777;
        stroke-width: 0px;
      }
    </style>
  </defs>
  <g id="Calque_1-2" data-name="Calque 1">
    <g>
      <polygon class="cls-1" points="22.53 97.95 20.54 96.99 8.57 81.67 8.04 80.1 8.51 41.31 8.92 39.98 16.1 28.96 18.2 27.83 85.23 27.83 87.38 29.04 94.56 41.01 94.92 42.29 94.95 61.9 89.95 61.91 89.92 42.99 83.82 32.83 19.55 32.83 13.51 42.1 13.05 79.28 23.71 92.94 73.92 92.4 73.97 97.4 22.53 97.95"/>
      <rect class="cls-1" x="10.95" y="44.4" width="82" height="5"/>
      <rect class="cls-1" y="44.15" width="10.53" height="5"/>
      <g>
        <rect class="cls-1" x="89.57" y="73.57" width="5" height="13.41"/>
        <rect class="cls-1" x="90.15" y="82.08" width="13.41" height="5"/>
        <path class="cls-1" d="M92.54,108.15c-13.52,0-24.53-11-24.53-24.53s11-24.53,24.53-24.53,24.53,11,24.53,24.53-11,24.53-24.53,24.53ZM92.54,64.1c-10.77,0-19.53,8.76-19.53,19.53s8.76,19.53,19.53,19.53,19.53-8.76,19.53-19.53-8.76-19.53-19.53-19.53Z"/>
      </g>
      <polygon class="cls-1" points="40.34 24.12 36.27 21.21 41.06 14.51 43.1 13.46 59.38 13.46 61.41 14.51 66.2 21.21 62.13 24.12 58.09 18.46 44.38 18.46 40.34 24.12"/>
      <polygon class="cls-1" points="30.62 17.23 25.88 15.65 27.31 11.37 24.57 8.63 24.1 5.75 26.97 0 31.45 2.24 29.38 6.37 31.93 8.93 32.54 11.49 30.62 17.23"/>
      <polygon class="cls-1" points="14.34 17.23 9.6 15.65 11.03 11.37 8.29 8.63 7.82 5.75 10.69 0 15.17 2.24 13.1 6.37 15.65 8.93 16.26 11.49 14.34 17.23"/>
      <polygon class="cls-1" points="92.87 17.23 88.13 15.65 89.56 11.37 86.82 8.63 86.35 5.75 89.22 0 93.69 2.24 91.63 6.37 94.18 8.93 94.79 11.49 92.87 17.23"/>
      <polygon class="cls-1" points="76.59 17.23 71.85 15.65 73.27 11.37 70.54 8.63 70.07 5.75 72.94 0 77.41 2.24 75.35 6.37 77.9 8.93 78.51 11.49 76.59 17.23"/>
    </g>
  </g>
</svg>