<?xml version="1.0" encoding="UTF-8"?>
<svg id="Calque_2" data-name="Calque 2" xmlns="http://www.w3.org/2000/svg" viewBox="0 0 143.39 123.85">
  <defs>
    <style>
      .cls-1 {
        fill: #3a5777;
        stroke-width: 0px;
      }
    </style>
  </defs>
  <g id="Calque_1-2" data-name="Calque 1">
    <g>
      <g>
        <path class="cls-1" d="M47.06,93.74c-18.94,0-34.37-1.26-38.52-4.43-2.5-1.91-4.2-4.18-4.27-4.28-2.62-3.53-4.09-7.92-4.27-12.72l2.83-2.98,3.97-.05c.84-28.84,25.03-57,51.94-59.81,16.45-1.72,32.51,3.27,44.06,13.67,11.37,10.24,17.38,24.68,17.38,41.74h-5.74c0-15.4-5.35-28.36-15.48-37.48-10.35-9.32-24.79-13.77-39.62-12.23-24.12,2.52-45.81,27.79-46.78,53.82,1.46.07,3.53.11,6.1.13l73.92-.94.1,5.74c-17.99.4-54.1,1.11-72.61.92l-14,.18c.47,2.47,1.42,4.7,2.81,6.57,0,.01,1.31,1.74,3.14,3.13,3.22,2.46,28.27,4.79,71.77,1.98l.37,5.73c-12.49.81-25.46,1.28-37.1,1.28Z"/>
        <rect class="cls-1" x="61.11" width="5.74" height="13.58"/>
      </g>
      <g>
        <rect class="cls-1" x="108.64" y="79.63" width="5.74" height="17.28"/>
        <rect class="cls-1" x="109.04" y="90.95" width="17.28" height="5.74"/>
        <path class="cls-1" d="M112.12,123.85c-17.24,0-31.26-14.03-31.26-31.26s14.03-31.26,31.26-31.26,31.26,14.03,31.26,31.26-14.03,31.26-31.26,31.26ZM112.12,67.06c-14.07,0-25.52,11.45-25.52,25.52s11.45,25.52,25.52,25.52,25.52-11.45,25.52-25.52-11.45-25.52-25.52-25.52Z"/>
      </g>
    </g>
  </g>
</svg>