<?xml version="1.0" encoding="UTF-8"?>
<svg id="Calque_2" data-name="Calque 2" xmlns="http://www.w3.org/2000/svg" viewBox="0 0 98.69 107.93">
  <defs>
    <style>
      .cls-1 {
        fill: #3a5777;
        stroke-width: 0px;
      }
    </style>
  </defs>
  <g id="Calque_1-2" data-name="Calque 1">
    <g>
      <g id="Hs920K.tif">
        <g>
          <path class="cls-1" d="M46.06,61.75c-3.18-1.55-6.4-3.05-9.57-4.61-7.94-3.92-15.9-7.83-23.48-12.43-2.34-1.42-4.77-2.78-6.57-4.91-3.47-4.1-5.29-8.84-5.34-14.23,0-.2-.06-.41-.09-.61l.14-2.29c.16-.85.32-1.69.49-2.54C3.52,10.94,11.43,3.2,20.66,1.45c1.61-.3,3.23-.35,4.85-.46l2.08.13c2.01.36,4.01.75,5.93,1.51,3.05,1.21,5.71,2.98,8.06,5.26,1.62,1.57,2.47,3.6,3.35,5.6,3.93,8.91,7.09,18.1,10.31,27.28,1.16,3.31,2.28,6.63,3.42,9.95.14.4-12.32,11.16-12.6,11.02ZM49.19,50.22c.1-.07.2-.13.29-.2-.96-1.85-1.91-3.69-2.87-5.53-5.12-9.76-10.17-19.54-15.9-28.96-1.25-2.05-2.54-4.08-4.51-5.54-3.77-2.78-7.83-3.82-12.33-1.98-1.2.49-1.2.56-.34,1.53,11.74,13.33,23.49,26.65,35.22,39.99.18.21.3.47.44.71ZM46.89,52.46c-.05-.45-.3-.61-.47-.81-11.78-13.38-23.57-26.75-35.35-40.13-.76-.86-.87-.86-1.45.16-2.57,4.5-1.93,8.87.68,13.1,1.61,2.6,4.11,4.31,6.47,6.14,9.07,7.02,18.51,13.52,27.94,20.05.7.48,1.41.96,2.19,1.49ZM5,19.74c-.79,2.6-1.04,5.34-.54,8.29.88,5.23,3.23,9.54,7.87,12.45,4.66,2.92,9.48,5.54,14.34,8.08,7.3,3.81,14.71,7.38,22.14,10.94.67.32,1.21.23,1.53-.34.34-.61-.4-.7-.71-.91-6.13-4.28-12.3-8.49-18.4-12.81-6.95-4.92-13.93-9.8-20.43-15.32-2.23-1.89-3.83-4.2-4.88-6.91-.43-1.1-.65-2.26-.91-3.48ZM22.4,4.43c5.05,1.51,8.34,5.01,10.98,9.38,4.75,7.86,9.05,15.96,13.34,24.07,2.8,5.28,5.5,10.61,8.26,15.91.15.28.15.89.71.66.51-.21.71-.64.45-1.2-.09-.19-.14-.39-.2-.59-1.56-4.53-3.09-9.07-4.68-13.59-2.91-8.29-5.84-16.58-9.36-24.63-.93-2.12-2.07-4.06-3.92-5.55-4.56-3.7-9.73-5.17-15.58-4.45Z"/>
          <path class="cls-1" d="M46,62.76c-.15,0-.26-.05-.38-.11-1.39-.68-2.79-1.35-4.19-2.01-1.8-.86-3.6-1.72-5.39-2.6l-.48-.24c-7.67-3.79-15.61-7.71-23.08-12.23l-.63-.38c-2.18-1.31-4.44-2.67-6.19-4.74C2.01,36.12.14,31.12.09,25.58c0-.08-.02-.16-.04-.24l-.05-.44.16-2.42.16-.84c.11-.57.22-1.14.33-1.71C2.63,10.3,10.78,2.3,20.48.47c1.34-.25,2.67-.33,3.97-.41l1.13-.06,2.19.15c1.98.35,4.09.76,6.12,1.56,3.08,1.22,5.91,3.06,8.39,5.47,1.69,1.65,2.59,3.69,3.46,5.67l.1.24c3.69,8.36,6.75,17.11,9.71,25.56l.63,1.79c.72,2.06,1.43,4.12,2.13,6.19.43,1.26.86,2.51,1.29,3.77.2.59.27.79-2.35,3.18.02.32-.04.58-.12.77-.18.46-.56.82-1.06,1.03-.38.15-.69.15-.93.08-.04.03-.08.07-.12.1-1.42,1.26-2.61,2.3-3.62,3.17.03.25,0,.56-.2.92-.43.79-1.19,1.14-2.06,1.01-2.06,1.71-2.75,2.1-3.15,2.1ZM2,24.9v.06c.05.2.08.4.08.6.05,5.07,1.76,9.64,5.1,13.59,1.54,1.82,3.55,3.03,5.69,4.32l.63.38c7.39,4.48,15.29,8.38,22.92,12.15l.48.24c1.78.88,3.57,1.73,5.36,2.59,1.24.59,2.48,1.18,3.71,1.78.26-.19.62-.48,1.05-.83-7.35-3.53-14.06-6.78-20.84-10.32-4.31-2.25-9.39-4.97-14.41-8.12-4.6-2.88-7.32-7.18-8.33-13.13-.5-2.97-.32-5.83.57-8.75l1.93.08.09.41c.22,1.04.43,2.02.78,2.92,1.01,2.59,2.55,4.78,4.59,6.51,6.11,5.18,12.76,9.89,19.2,14.44l1.17.83c3.76,2.66,7.61,5.32,11.33,7.9,2.29,1.58,4.58,3.17,6.86,4.76,1.28-1.1,2.66-2.31,3.91-3.41-.99-1.9-1.99-3.83-2.98-5.76-1.68-3.26-3.37-6.53-5.08-9.77-3.95-7.47-8.43-15.93-13.31-24.02-2.97-4.92-6.18-7.67-10.41-8.94l.16-1.95c6.09-.75,11.59.82,16.33,4.67,2.21,1.8,3.41,4.11,4.21,5.93,3.61,8.25,6.68,16.99,9.39,24.7,1.1,3.12,2.17,6.24,3.23,9.37l1.15,3.34c.41-.38.74-.7.95-.92-.37-1.09-.75-2.17-1.12-3.26-.7-2.06-1.41-4.12-2.12-6.17l-.63-1.79c-2.95-8.42-6-17.12-9.66-25.42l-.11-.24c-.83-1.89-1.62-3.67-3.03-5.05-2.32-2.26-4.85-3.91-7.73-5.05-1.84-.73-3.81-1.11-5.68-1.44l-1.96-.12-.94.06c-1.29.08-2.5.15-3.72.38C11.93,4.12,4.43,11.48,2.61,20.33c-.11.56-.22,1.12-.33,1.68l-.15.79-.13,2.11ZM5.22,24.17c-.06,1.22.01,2.45.22,3.7.9,5.36,3.33,9.2,7.42,11.76,4.96,3.11,10,5.81,14.28,8.04,6.31,3.29,12.56,6.34,19.33,9.59-1.49-1.03-2.98-2.06-4.47-3.09-3.73-2.58-7.58-5.25-11.35-7.91l-1.17-.82c-6.47-4.58-13.17-9.31-19.34-14.55-2.14-1.82-3.79-4.08-4.92-6.72ZM26.81,5.32c2.81,1.73,5.23,4.34,7.42,7.98,4.91,8.14,9.41,16.62,13.37,24.12,1.72,3.25,3.41,6.52,5.09,9.79.31.61.62,1.21.94,1.81l-.09-.26c-1.07-3.12-2.13-6.24-3.23-9.35-2.7-7.68-5.75-16.38-9.34-24.56-1.05-2.39-2.17-3.99-3.63-5.18-3.21-2.6-6.69-4.04-10.54-4.34ZM46.33,53.29l-.67-.46c-.53-.36-1.03-.7-1.53-1.04l-1.3-.9c-8.85-6.13-18-12.47-26.68-19.18l-.89-.68c-2.12-1.62-4.32-3.29-5.82-5.72-3.02-4.89-3.25-9.64-.7-14.12.32-.57.69-1.21,1.43-1.29.73-.08,1.22.47,1.64.96,11.79,13.37,23.57,26.75,35.35,40.13.27.27.64.65.72,1.37l-1.56.93ZM10.42,12.3c-2.12,3.81-1.88,7.73.73,11.96,1.31,2.12,3.26,3.61,5.33,5.18l.9.69c7.8,6.04,16,11.78,24.03,17.34-10.33-11.73-20.66-23.45-30.99-35.17ZM49.75,51.04l-1.42-.3c-.05-.09-.1-.18-.15-.27-.07-.12-.13-.24-.19-.3-10.02-11.38-20.05-22.76-30.07-34.14l-5.15-5.85c-.53-.6-.99-1.12-.82-1.84.17-.72.83-.99,1.54-1.28,4.47-1.83,8.95-1.11,13.31,2.1,2.07,1.53,3.38,3.54,4.77,5.83,5.26,8.65,10.02,17.74,14.63,26.53l1.31,2.49c.67,1.28,1.33,2.56,2,3.84l.88,1.7-.33,1.29-.29.2ZM14.3,8.89l5.12,5.82c8.6,9.76,17.21,19.53,25.81,29.3l-.81-1.55c-4.59-8.76-9.34-17.83-14.56-26.42-1.28-2.1-2.48-3.95-4.25-5.26-3.79-2.8-7.49-3.42-11.3-1.88Z"/>
        </g>
      </g>
      <g>
        <path class="cls-1" d="M85.3,107.93l-3.53-.25-38.26-44.11.25-3.53,13.14-11.4,3.53.25,38.26,44.11-.25,3.53-13.14,11.4ZM48.93,62.18l34.98,40.33,9.36-8.12-34.99-40.33-9.36,8.12Z"/>
        <rect class="cls-1" x="74.51" y="87.48" width="14.91" height="5.41" transform="translate(-39.05 75.75) rotate(-40.93)"/>
      </g>
    </g>
  </g>
</svg>