<?xml version="1.0" encoding="UTF-8"?>
<svg id="Calque_2" data-name="Calque 2" xmlns="http://www.w3.org/2000/svg" viewBox="0 0 117.18 108.41">
  <defs>
    <style>
      .cls-1 {
        fill: #a7baa7;
        stroke-width: 0px;
      }
    </style>
  </defs>
  <g id="Calque_1-2" data-name="Calque 1">
    <g>
      <path class="cls-1" d="M38.14,108.36l-.02-.16c-1.25-12.05-3.35-32.21-16.77-47.54-.28-.32-.57-.66-.88-1.02-3.2-3.72-8.03-9.35-20.48-16.46l2.48-4.34c13.2,7.54,18.37,13.56,21.79,17.54.29.34.58.67.85.98,14.46,16.53,16.75,38.51,17.98,50.32l.02.16-4.97.52Z"/>
      <path class="cls-1" d="M43.11,108.41l-4.96-.62c1.63-13.02,5.18-25.64,10.55-37.52,1.53-3.37,2.85-6.82,4.25-10.46,6.41-16.68,13.67-35.58,43.03-48.3l1.99,4.59c-27.44,11.89-34,28.98-40.35,45.51-1.37,3.55-2.78,7.23-4.36,10.73-5.17,11.42-8.58,23.56-10.15,36.08Z"/>
      <path class="cls-1" d="M54.13,69.35l-4.23-2.62c-.18.36-.2.64-.2.65.04-.84-.72-4.48-1.32-7.41-1.03-4.99-2.2-10.65-2.2-13.97,0-17.29,4.31-28.86,13.57-36.44,12.94-10.59,35.11-12.56,56.46-5.02l.96,4.1c-.33.34-.7.71-1.08,1.09-2.44,2.45-5.79,5.79-7.56,10.67-1.24,3.42-2.15,7.73-3.12,12.29-2.59,12.25-5.52,26.14-16.52,31.64-8.14,4.07-17.42,4.03-24.87,4-3.85-.01-9.11-.04-9.9,1.02ZM90.7,5.06c-11.05,0-21.03,2.85-27.78,8.37-10.4,8.51-11.73,21.87-11.73,32.57,0,2.8,1.16,8.43,2.1,12.96.43,2.08.75,3.69.99,4.95,2.53-.61,5.84-.59,9.79-.58,6.93.03,15.54.07,22.61-3.47,8.84-4.42,11.51-17.05,13.86-28.2,1-4.74,1.95-9.22,3.31-12.97,1.7-4.68,4.53-8.13,6.93-10.66-6.76-1.99-13.59-2.97-20.07-2.97Z"/>
    </g>
  </g>
</svg>