<?xml version="1.0" encoding="UTF-8"?>
<svg id="Calque_2" data-name="Calque 2" xmlns="http://www.w3.org/2000/svg" viewBox="0 0 24.75 17.58">
  <defs>
    <style>
      .cls-1 {
        fill: #a7baa7;
        stroke-width: 0px;
      }
    </style>
  </defs>
  <g id="Calque_1-2" data-name="Calque 1">
    <g id="XSgTsn.tif">
      <path class="cls-1" d="M12.47,17.58c-1.49,0-3.07-.03-4.76-.09-1.56-.05-2.97-.12-4.39-.35-1.43-.23-2.52-1.24-2.85-2.65-.25-1.06-.33-2.09-.4-3.32C-.02,9.61-.02,8.01.07,6.43c.06-1,.13-2.07.35-3.14C.75,1.73,1.74.75,3.29.44c.71-.14,1.41-.19,2.13-.23,1.61-.1,3.26-.16,5.02-.17h.12c.13,0,.24,0,.32-.02l.11-.02,2.93.02s.07.01.11.01l1.01.02c.64.01,1.29.03,1.93.05h.3c1.37.06,2.79.11,4.19.36,1.44.26,2.4,1.13,2.78,2.53.25.9.32,1.81.39,2.7l.02.25c.02.21.02.41.03.62,0,.32.02.61.07.91v2.46s-.01.12-.01.12c-.03.09-.03.2-.03.33v.11c-.04,1.03-.11,2.39-.36,3.74-.25,1.38-1.02,2.32-2.28,2.79-.5.19-1.02.24-1.52.28-1.95.18-3.9.23-5.62.27-.8.02-1.61.03-2.46.03ZM10.54.86c-1.85.02-3.48.07-5.08.17-.69.04-1.36.09-2.02.22-1.22.24-1.96.98-2.22,2.2-.21,1.02-.28,2.05-.34,3.02-.09,1.55-.09,3.12,0,4.65.07,1.19.14,2.19.38,3.18.26,1.09,1.07,1.85,2.18,2.02,1.37.22,2.75.28,4.29.34,2.64.09,4.98.11,7.17.06,1.71-.04,3.64-.09,5.51-.26.51-.05.95-.09,1.36-.24.98-.36,1.55-1.07,1.75-2.16.24-1.3.31-2.62.35-3.62,0-.23,0-.4.05-.58v-2.33c-.05-.28-.06-.62-.07-.95,0-.19-.01-.38-.03-.57l-.02-.25c-.07-.89-.14-1.72-.36-2.54-.3-1.1-1-1.73-2.13-1.94-1.33-.24-2.72-.29-4.07-.34h-.3c-.64-.03-1.28-.05-1.92-.06l-1.01-.02c-.07,0-.15-.01-.22-.02h-2.75c-.18.03-.34.03-.49.03ZM10.2,12.72l-.62-.36v-7.14l.62-.36,6.21,3.57v.71l-6.21,3.57ZM10.41,5.94v5.71l4.96-2.86-4.96-2.86Z"/>
    </g>
  </g>
</svg>